<svg version="1.1" xmlns="http://www.w3.org/2000/svg" viewBox="0 0 1166.8525230771022 652.2650029727192" width="1166.8525230771022" height="652.2650029727192">
  <!-- svg-source:excalidraw -->
  
  <defs>
    <style class="style-fonts">
      @font-face {
        font-family: "Virgil";
        src: url("https://excalidraw.com/Virgil.woff2");
      }
      @font-face {
        font-family: "Cascadia";
        src: url("https://excalidraw.com/Cascadia.woff2");
      }
    </style>
  </defs>
  <rect x="0" y="0" width="1166.8525230771022" height="652.2650029727192" fill="#ffffff"></rect><g stroke-linecap="round" transform="translate(318.3508478268835 10) rotate(0 419.25083762510934 316.1325014863596)"><path d="M32 0 M32 0 C190.55 0.38, 350.35 1.66, 806.5 0 M32 0 C257.05 1.19, 481.5 1.38, 806.5 0 M806.5 0 C826.19 1.17, 837.88 8.89, 838.5 32 M806.5 0 C827.21 -1.7, 840.5 12.12, 838.5 32 M838.5 32 C836.81 191.54, 835.84 349.72, 838.5 600.27 M838.5 32 C837.75 168.91, 837.72 305.22, 838.5 600.27 M838.5 600.27 C837.21 620, 829.13 634.06, 806.5 632.27 M838.5 600.27 C840.36 619.76, 826.86 632.34, 806.5 632.27 M806.5 632.27 C528.03 634.85, 250.27 633.78, 32 632.27 M806.5 632.27 C629.67 632.47, 452.74 631.97, 32 632.27 M32 632.27 C12.17 630.31, -1.03 621.55, 0 600.27 M32 632.27 C11.12 631.33, 0.87 621.62, 0 600.27 M0 600.27 C0.35 475.48, -1.05 349.73, 0 32 M0 600.27 C-0.58 481.23, -1.16 362.97, 0 32 M0 32 C1.21 10.99, 9.66 0.06, 32 0 M0 32 C-0.55 9.84, 8.94 0.63, 32 0" stroke="#1e1e1e" stroke-width="1" fill="none"></path></g><g transform="translate(356.869655140766 23.72157268343622) rotate(0 36.16796112060547 7.505066539497662)"><text x="0" y="0" font-family="Virgil, Segoe UI Emoji" font-size="12.008106463196247px" fill="#e03131" text-anchor="start" style="white-space: pre;" direction="ltr" dominant-baseline="text-before-edge">kube cluster</text></g><g stroke-linecap="round" transform="translate(348.3443305449739 50.21755658441339) rotate(0 96.99497070638992 284.1485411952549)"><path d="M32 0 M32 0 C76.98 -1.02, 122.26 -1.5, 161.99 0 M32 0 C67.95 0.24, 104.78 0.98, 161.99 0 M161.99 0 C184.92 0.4, 194.52 10.95, 193.99 32 M161.99 0 C184.2 -1.12, 194.18 11.43, 193.99 32 M193.99 32 C193.73 175.31, 193.42 317.32, 193.99 536.3 M193.99 32 C195.27 176.34, 195.61 321.4, 193.99 536.3 M193.99 536.3 C195.51 557.42, 183.71 566.62, 161.99 568.3 M193.99 536.3 C192.34 556.61, 184.15 568.22, 161.99 568.3 M161.99 568.3 C110.34 566.97, 56.75 569.82, 32 568.3 M161.99 568.3 C115.1 569.4, 67.54 568.55, 32 568.3 M32 568.3 C9.79 569.89, -0.39 558.55, 0 536.3 M32 568.3 C9.47 567.41, 0.43 559.09, 0 536.3 M0 536.3 C0.76 409.97, -0.16 283.27, 0 32 M0 536.3 C0.16 383.83, 0.02 230.95, 0 32 M0 32 C0.98 9.64, 11.71 -0.73, 32 0 M0 32 C1.08 10.31, 10.99 -1.03, 32 0" stroke="#1e1e1e" stroke-width="1" fill="none"></path></g><g transform="translate(383.3998065118966 62.64841714926669) rotate(0 43.42195129394531 7.505066539497662)"><text x="0" y="0" font-family="Virgil, Segoe UI Emoji" font-size="12.008106463196247px" fill="#e03131" text-anchor="start" style="white-space: pre;" direction="ltr" dominant-baseline="text-before-edge">j8a-namespace</text></g><g stroke-linecap="round" transform="translate(366.89191744858215 191.50884273778217) rotate(0 77.5 27.5)"><path d="M13.75 0 M13.75 0 C58.81 0.41, 102.27 1.29, 141.25 0 M13.75 0 C51.13 -0.02, 88 -0.76, 141.25 0 M141.25 0 C150.92 1.35, 156.16 4.13, 155 13.75 M141.25 0 C148.46 -1.54, 153.43 5.79, 155 13.75 M155 13.75 C154.52 24.05, 156.55 32.29, 155 41.25 M155 13.75 C154.24 23.3, 155.12 34.62, 155 41.25 M155 41.25 C154.65 51.95, 152.17 53.83, 141.25 55 M155 41.25 C156.87 51.94, 149.27 53.07, 141.25 55 M141.25 55 C94.25 57.08, 47.06 57.12, 13.75 55 M141.25 55 C97.72 57.03, 53.63 56.46, 13.75 55 M13.75 55 C5.25 55.77, 1.99 50.3, 0 41.25 M13.75 55 C3.98 52.72, -1.1 51.87, 0 41.25 M0 41.25 C-1.9 33.84, 1.57 25.36, 0 13.75 M0 41.25 C0.45 32.94, -0.69 22.82, 0 13.75 M0 13.75 C-1.07 2.65, 5.13 0.62, 13.75 0 M0 13.75 C0.98 4.06, 3.62 1.73, 13.75 0" stroke="#1e1e1e" stroke-width="1" fill="none"></path></g><g transform="translate(413.2483246141095 204.64377779243694) rotate(0 31.143592834472656 14.365064945345239)"><text x="31.143592834472656" y="0" font-family="Virgil, Segoe UI Emoji" font-size="11.492051956276189px" fill="#e03131" text-anchor="middle" style="white-space: pre;" direction="ltr" dominant-baseline="text-before-edge">ingress-j8a</text><text x="31.143592834472656" y="14.365064945345235" font-family="Virgil, Segoe UI Emoji" font-size="11.492051956276189px" fill="#e03131" text-anchor="middle" style="white-space: pre;" direction="ltr" dominant-baseline="text-before-edge">pod</text></g><g stroke-linecap="round" transform="translate(704.1398421053483 132.67249299537042) rotate(0 213.5829527463606 74.87318849996663)"><path d="M32 0 M32 0 C145.78 2.02, 261.47 2.17, 395.17 0 M32 0 C165.93 0.85, 300.7 0.91, 395.17 0 M395.17 0 C417.43 0.76, 425.32 9.75, 427.17 32 M395.17 0 C415.41 -1.42, 428.71 11.67, 427.17 32 M427.17 32 C428.47 54.97, 427.38 75.18, 427.17 117.75 M427.17 32 C427.23 62.43, 427.37 91.55, 427.17 117.75 M427.17 117.75 C428.69 139.64, 415.09 148.85, 395.17 149.75 M427.17 117.75 C426.06 137.65, 416.84 149.59, 395.17 149.75 M395.17 149.75 C255.74 149.93, 115.63 148.19, 32 149.75 M395.17 149.75 C251.99 149.17, 109.49 150.23, 32 149.75 M32 149.75 C9.35 148.86, 1.76 137.22, 0 117.75 M32 149.75 C11.34 150.96, -0.62 138.24, 0 117.75 M0 117.75 C0.04 91.03, 0.53 66.58, 0 32 M0 117.75 C0.15 100.53, -0.6 83.15, 0 32 M0 32 C1.99 12.52, 12.38 -1.6, 32 0 M0 32 C-0.85 11.3, 9.53 0.69, 32 0" stroke="#1e1e1e" stroke-width="1" fill="none"></path></g><g transform="translate(671.4353091119692 146.36516808398176) rotate(0 45.9239501953125 7.505066539497648)"><text x="0" y="0" font-family="Virgil, Segoe UI Emoji" font-size="12.008106463196247px" fill="#e03131" text-anchor="start" style="white-space: pre;" direction="ltr" dominant-baseline="text-before-edge">user namespace</text></g><g stroke-linecap="round" transform="translate(438.19520623826406 330.42915362714126) rotate(0 29 33.99999999999997)"><path d="M14.5 0 M14.5 0 C25.19 1.37, 33.75 0.39, 43.5 0 M14.5 0 C23.66 -0.67, 33.78 -1.13, 43.5 0 M43.5 0 C53.96 1.04, 58.83 3.96, 58 14.5 M43.5 0 C51.63 -1.85, 55.79 5.54, 58 14.5 M58 14.5 C59.85 29.23, 58.55 43.92, 58 53.5 M58 14.5 C58.39 28.07, 58.16 42.83, 58 53.5 M58 53.5 C56.1 63.09, 51.26 67.77, 43.5 68 M58 53.5 C58.15 62.24, 52.96 69.92, 43.5 68 M43.5 68 C34.1 67.72, 23.84 66.24, 14.5 68 M43.5 68 C36.61 67.34, 29.4 67.7, 14.5 68 M14.5 68 C3.55 66.25, 1.19 64.76, 0 53.5 M14.5 68 C6.16 69.79, -0.18 61.45, 0 53.5 M0 53.5 C-1.16 37.96, 1.16 24.13, 0 14.5 M0 53.5 C-0.88 37.73, -0.06 23.29, 0 14.5 M0 14.5 C1.07 3.64, 6.2 1.84, 14.5 0 M0 14.5 C-0.33 2.83, 3.47 -1.73, 14.5 0" stroke="#1e1e1e" stroke-width="1" fill="none"></path></g><g transform="translate(457.0928197636547 335.7046514967891) rotate(0 10.102386474609375 28.724502130352164)"><text x="10.102386474609375" y="0" font-family="Virgil, Segoe UI Emoji" font-size="11.489800852140872px" fill="#e03131" text-anchor="middle" style="white-space: pre;" direction="ltr" dominant-baseline="text-before-edge"></text><text x="10.102386474609375" y="14.36225106517609" font-family="Virgil, Segoe UI Emoji" font-size="11.489800852140872px" fill="#e03131" text-anchor="middle" style="white-space: pre;" direction="ltr" dominant-baseline="text-before-edge">j8a</text><text x="10.102386474609375" y="28.72450213035218" font-family="Virgil, Segoe UI Emoji" font-size="11.489800852140872px" fill="#e03131" text-anchor="middle" style="white-space: pre;" direction="ltr" dominant-baseline="text-before-edge">pod</text><text x="10.102386474609375" y="43.086753195528274" font-family="Virgil, Segoe UI Emoji" font-size="11.489800852140872px" fill="#e03131" text-anchor="middle" style="white-space: pre;" direction="ltr" dominant-baseline="text-before-edge"></text></g><g stroke-linecap="round" transform="translate(733.7451674875161 180.51798996111376) rotate(0 49.67770983675433 24.640144079030165)"><path d="M12.32 0 M12.32 0 C28.45 -1.38, 47.24 0.65, 87.04 0 M87.04 0 C95.08 1.08, 100.86 2.36, 99.36 12.32 M99.36 12.32 C97.58 17.79, 100.08 26.09, 99.36 36.96 M99.36 36.96 C98.57 46.7, 95.52 48.73, 87.04 49.28 M87.04 49.28 C73.24 49.95, 54.8 50.59, 12.32 49.28 M12.32 49.28 C3.35 47.38, 1.4 45.09, 0 36.96 M0 36.96 C1.27 29.36, -1.75 22.31, 0 12.32 M0 12.32 C-1.84 4.37, 4.42 -0.84, 12.32 0" stroke="#1e1e1e" stroke-width="1.5" fill="none" stroke-dasharray="8 9"></path></g><g transform="translate(749.8836240894072 197.9756015674713) rotate(0 33.53925323486328 7.182532472672619)"><text x="33.53925323486328" y="0" font-family="Virgil, Segoe UI Emoji" font-size="11.492051956276189px" fill="#e03131" text-anchor="middle" style="white-space: pre;" direction="ltr" dominant-baseline="text-before-edge">user ingress</text></g><g stroke-linecap="round" transform="translate(892.6865206823971 151.28287496928436) rotate(0 49.29108194604112 53.999246918347325)"><path d="M5.9 6.46 C5.9 6.46, 5.9 6.46, 5.9 6.46 M5.9 6.46 C5.9 6.46, 5.9 6.46, 5.9 6.46 M0.39 18.89 C6.3 13.38, 10.53 7.32, 14.83 2.29 M0.39 18.89 C4.06 15.41, 6.02 11.26, 14.83 2.29 M0.13 25.29 C4.76 17.65, 10.44 11.89, 21.13 1.14 M0.13 25.29 C7.39 16.77, 13.3 8.72, 21.13 1.14 M0.53 30.93 C7.27 24.25, 12.3 17.21, 26.11 1.5 M0.53 30.93 C6.52 24.3, 11.73 17.68, 26.11 1.5 M0.27 37.33 C10.01 26.95, 18.58 14.82, 31.76 1.11 M0.27 37.33 C7.6 29.33, 14.52 19.99, 31.76 1.11 M0 43.73 C13.2 29.78, 27.38 15.28, 36.74 1.47 M0 43.73 C7.85 35.74, 14.93 25.51, 36.74 1.47 M0.4 49.37 C11.34 35.86, 23.98 22.68, 41.73 1.83 M0.4 49.37 C15.68 31.06, 30.38 15.28, 41.73 1.83 M0.14 55.77 C18.12 38.24, 31.82 20.24, 47.37 1.43 M0.14 55.77 C10.1 44.31, 19.27 34.31, 47.37 1.43 M-0.12 62.17 C10.61 47.07, 23.22 34.21, 52.36 1.79 M-0.12 62.17 C19.47 39.12, 40.67 15.94, 52.36 1.79 M0.27 67.81 C19.84 46.68, 33.92 25.04, 58 1.4 M0.27 67.81 C13.24 52.45, 24.88 38.82, 58 1.4 M0.01 74.21 C15.48 54.55, 30.67 38.69, 62.99 1.76 M0.01 74.21 C23.89 46.59, 47.85 20.04, 62.99 1.76 M-0.25 80.61 C28.17 47.19, 52.84 17.68, 68.63 1.36 M-0.25 80.61 C24.7 54.31, 47.75 26.3, 68.63 1.36 M1.45 84.74 C21.2 62.78, 36.54 41.28, 73.62 1.72 M1.45 84.74 C26 55.51, 52.03 27.2, 73.62 1.72 M2.51 89.63 C26.76 60.81, 53.65 35.67, 79.92 0.57 M2.51 89.63 C20.04 69.4, 38.02 47.87, 79.92 0.57 M3.56 94.52 C36.88 57.79, 67.67 22.91, 84.25 1.69 M3.56 94.52 C33.01 61.72, 59.76 30.02, 84.25 1.69 M4.61 99.41 C37.46 60.32, 68.15 24.87, 87.93 3.56 M4.61 99.41 C24.79 75.74, 44.45 53.34, 87.93 3.56 M7.63 102.03 C28.53 76.98, 49.58 53.54, 91.6 5.43 M7.63 102.03 C37.6 67.95, 67.29 34.68, 91.6 5.43 M9.99 105.41 C38.43 74.27, 64.86 42.13, 93.96 8.81 M9.99 105.41 C35.54 78.01, 58.67 47.59, 93.96 8.81 M14.32 106.52 C37.63 74.21, 63.43 48.39, 96.98 11.43 M14.32 106.52 C45.43 70.87, 78.29 34.25, 96.98 11.43 M18.65 107.64 C38.57 86.01, 58.71 61.9, 98.03 16.32 M18.65 107.64 C35.97 86.03, 54.91 64.89, 98.03 16.32 M21.67 110.26 C38.95 91.87, 57.32 71.44, 99.08 21.21 M21.67 110.26 C50.62 76.04, 79.71 42.78, 99.08 21.21 M27.31 109.87 C56.53 76.72, 84.31 40.91, 100.13 26.09 M27.31 109.87 C45.85 89.69, 62.87 69.16, 100.13 26.09 M32.3 110.23 C54.29 85.22, 76.08 61.52, 99.87 32.49 M32.3 110.23 C54.05 85.1, 75.04 60.07, 99.87 32.49 M37.29 110.59 C55.86 89.96, 76.83 67.49, 100.27 38.14 M37.29 110.59 C62.38 81.77, 88.07 52.99, 100.27 38.14 M42.93 110.19 C63.25 84.58, 86.58 59.39, 100.01 44.53 M42.93 110.19 C60.76 89.38, 79.11 68.83, 100.01 44.53 M47.92 110.55 C60.76 97.82, 74.06 83.69, 100.4 50.18 M47.92 110.55 C67.5 87.11, 88.11 65.48, 100.4 50.18 M53.56 110.16 C62.57 99, 73.59 89.71, 100.14 56.57 M53.56 110.16 C69.06 92.33, 82.81 75.22, 100.14 56.57 M58.55 110.52 C66.72 97.53, 78.61 85.82, 99.88 62.97 M58.55 110.52 C71.57 95.45, 85.22 79.33, 99.88 62.97 M64.19 110.12 C71.57 97.9, 83.56 90.12, 100.27 68.62 M64.19 110.12 C79.59 93.89, 92.76 77.4, 100.27 68.62 M69.18 110.48 C75.31 103.11, 82.34 93.54, 100.01 75.01 M69.18 110.48 C80.94 98.4, 91.77 85.91, 100.01 75.01 M75.48 109.34 C79.22 101.36, 87.37 95.67, 100.41 80.66 M75.48 109.34 C82.22 101.59, 88.49 95.37, 100.41 80.66 M82.43 107.43 C89.36 100.28, 96.29 90.08, 101.46 85.54 M82.43 107.43 C88.1 100.15, 93.73 93.69, 101.46 85.54" stroke="#b2f2bb" stroke-width="0.5" fill="none"></path><path d="M24.65 0 M24.65 0 C34.36 0.98, 49.03 0.94, 73.94 0 M24.65 0 C40.99 0.61, 58.1 0.79, 73.94 0 M73.94 0 C88.65 1.97, 97.01 7.27, 98.58 24.65 M73.94 0 C89.49 2.1, 97.65 9.92, 98.58 24.65 M98.58 24.65 C99.09 42.67, 100.1 64.09, 98.58 83.35 M98.58 24.65 C99.42 38.2, 98.17 52.14, 98.58 83.35 M98.58 83.35 C99.36 99.64, 91.8 106.11, 73.94 108 M98.58 83.35 C99.62 99.69, 91.2 106.78, 73.94 108 M73.94 108 C60.16 107.39, 43.33 107.35, 24.65 108 M73.94 108 C63.51 107.38, 51 108.58, 24.65 108 M24.65 108 C9.52 109.63, 0.62 98.06, 0 83.35 M24.65 108 C8.03 107.13, 1.6 99.6, 0 83.35 M0 83.35 C-1.92 65.33, 0.02 43.26, 0 24.65 M0 83.35 C0.49 62.27, -0.39 40.02, 0 24.65 M0 24.65 C0.5 6.44, 6.91 -0.29, 24.65 0 M0 24.65 C-1.42 6.2, 8.04 -0.03, 24.65 0" stroke="#1e1e1e" stroke-width="1" fill="none"></path></g><g transform="translate(925.6588007485554 198.10099635504366) rotate(0 16.318801879882812 7.181125532588055)"><text x="16.318801879882812" y="0" font-family="Virgil, Segoe UI Emoji" font-size="11.489800852140872px" fill="#e03131" text-anchor="middle" style="white-space: pre;" direction="ltr" dominant-baseline="text-before-edge">pod B</text></g><g stroke-linecap="round" transform="translate(890.9928960994955 429.5708381378214) rotate(0 49.29108194604112 53.999246918347296)"><path d="M5.9 6.46 C5.9 6.46, 5.9 6.46, 5.9 6.46 M5.9 6.46 C5.9 6.46, 5.9 6.46, 5.9 6.46 M0.39 18.89 C7.46 14.59, 10.78 4.82, 14.83 2.29 M0.39 18.89 C4.57 15.74, 6.97 10.74, 14.83 2.29 M0.13 25.29 C6.56 14.8, 14.91 4.49, 21.13 1.14 M0.13 25.29 C6.54 16.98, 13.47 9.08, 21.13 1.14 M0.53 30.93 C9.19 22.91, 14.94 10.81, 26.11 1.5 M0.53 30.93 C8.21 22.77, 16.91 13.2, 26.11 1.5 M0.27 37.33 C9.97 30.35, 14.96 19.04, 31.76 1.11 M0.27 37.33 C7.25 28.81, 13.96 21.59, 31.76 1.11 M0 43.73 C10.86 30.65, 20.93 20.69, 36.74 1.47 M0 43.73 C15.31 27.56, 29.22 11.73, 36.74 1.47 M0.4 49.37 C9.04 39.64, 19.14 27.39, 41.73 1.83 M0.4 49.37 C13.87 34.77, 26.79 17.93, 41.73 1.83 M0.14 55.77 C11.75 42.72, 21.89 27.09, 47.37 1.43 M0.14 55.77 C19.04 35.45, 35.68 14.96, 47.37 1.43 M-0.12 62.17 C16.12 44.98, 28.81 28.3, 52.36 1.79 M-0.12 62.17 C19.3 38.86, 39.89 15.36, 52.36 1.79 M0.27 67.81 C16.19 50.02, 33.48 29.89, 58 1.4 M0.27 67.81 C18.01 47.17, 38.12 23.91, 58 1.4 M0.01 74.21 C15.7 55.79, 26.17 39.58, 62.99 1.76 M0.01 74.21 C23.29 45.25, 48.68 18.23, 62.99 1.76 M-0.25 80.61 C15.94 63.91, 31.29 47.36, 68.63 1.36 M-0.25 80.61 C16.98 61.14, 32.53 43.16, 68.63 1.36 M1.45 84.74 C25.59 56.48, 52.29 29.43, 73.62 1.72 M1.45 84.74 C19.92 62.68, 38.06 40.9, 73.62 1.72 M2.51 89.63 C22.44 67.79, 40.76 44.52, 79.92 0.57 M2.51 89.63 C21.15 70.91, 37.99 50.7, 79.92 0.57 M3.56 94.52 C27.08 66.81, 51.7 38.93, 84.25 1.69 M3.56 94.52 C33.72 60.5, 62.93 25.73, 84.25 1.69 M4.61 99.41 C24.02 75.77, 45.66 54.55, 87.93 3.56 M4.61 99.41 C36.26 61.54, 69.35 24.26, 87.93 3.56 M7.63 102.03 C31.79 72.93, 54.87 46.78, 91.6 5.43 M7.63 102.03 C25.65 79.93, 44.98 58.35, 91.6 5.43 M9.99 105.41 C30.62 82.78, 52.5 60.53, 93.96 8.81 M9.99 105.41 C38.66 71.94, 66.77 39.42, 93.96 8.81 M14.32 106.52 C44.34 72.59, 73.43 40.43, 96.98 11.43 M14.32 106.52 C47.11 70.5, 77.75 32.71, 96.98 11.43 M18.65 107.64 C34.62 86.3, 50.67 68.92, 98.03 16.32 M18.65 107.64 C39.86 83.84, 60.41 60.36, 98.03 16.32 M21.67 110.26 C43.31 85.87, 59.63 66.38, 99.08 21.21 M21.67 110.26 C47.27 80.81, 74.68 48.78, 99.08 21.21 M27.31 109.87 C46.91 88.91, 64.43 68.6, 100.13 26.09 M27.31 109.87 C42.39 91.86, 59.76 72.9, 100.13 26.09 M32.3 110.23 C59.11 78.11, 84.09 50.36, 99.87 32.49 M32.3 110.23 C49.66 90.92, 65.85 71.52, 99.87 32.49 M37.29 110.59 C60.62 83.31, 84.88 55.86, 100.27 38.14 M37.29 110.59 C56.05 88.3, 74.6 66.19, 100.27 38.14 M42.93 110.19 C62.13 88.15, 79.11 71.48, 100.01 44.53 M42.93 110.19 C63.21 85.67, 84.89 61.5, 100.01 44.53 M47.92 110.55 C65.95 87.13, 85.86 67.93, 100.4 50.18 M47.92 110.55 C62 94.02, 74.68 78.17, 100.4 50.18 M53.56 110.16 C70.97 93.71, 87.11 73.18, 100.14 56.57 M53.56 110.16 C63.75 98.59, 73.4 86.21, 100.14 56.57 M58.55 110.52 C70.49 95.65, 83.93 83.34, 99.88 62.97 M58.55 110.52 C68.73 98.94, 80.19 86.91, 99.88 62.97 M64.19 110.12 C74.33 101.88, 82.06 88.84, 100.27 68.62 M64.19 110.12 C74.8 98.05, 85.95 86.59, 100.27 68.62 M69.18 110.48 C74.33 103.87, 82.15 94.74, 100.01 75.01 M69.18 110.48 C78.71 98.88, 89.11 85.97, 100.01 75.01 M75.48 109.34 C82.61 101.34, 89.26 91.48, 100.41 80.66 M75.48 109.34 C82.63 101.81, 88.29 94.43, 100.41 80.66 M82.43 107.43 C85.49 101.01, 90.9 93.88, 101.46 85.54 M82.43 107.43 C88.54 100.76, 95.88 92.83, 101.46 85.54" stroke="#ffc9c9" stroke-width="0.5" fill="none"></path><path d="M24.65 0 M24.65 0 C42.2 0.04, 59.42 -1.97, 73.94 0 M24.65 0 C34.41 0.94, 46.06 0.13, 73.94 0 M73.94 0 C91.72 -0.3, 97.72 9.55, 98.58 24.65 M73.94 0 C92.19 1.33, 98.64 6.29, 98.58 24.65 M98.58 24.65 C100.19 38.39, 98.89 51.4, 98.58 83.35 M98.58 24.65 C99.22 43.24, 97.95 62.62, 98.58 83.35 M98.58 83.35 C97.71 100.49, 89.61 109.63, 73.94 108 M98.58 83.35 C97.47 101.06, 90.62 110.19, 73.94 108 M73.94 108 C57.25 106.77, 41.25 108.67, 24.65 108 M73.94 108 C64.27 108.17, 54.07 108.28, 24.65 108 M24.65 108 C9.56 107.65, -0.01 97.87, 0 83.35 M24.65 108 C9.95 107.89, -0.89 101.22, 0 83.35 M0 83.35 C-0.99 65.56, -1.03 46.65, 0 24.65 M0 83.35 C-0.06 66.06, -0.33 48.5, 0 24.65 M0 24.65 C1.69 8.74, 8.91 1.27, 24.65 0 M0 24.65 C1.22 8.92, 6.92 -0.15, 24.65 0" stroke="#1e1e1e" stroke-width="1" fill="none"></path></g><g transform="translate(924.3727155333296 476.38895952358064) rotate(0 15.911262512207031 7.181125532588055)"><text x="15.911262512207031" y="0" font-family="Virgil, Segoe UI Emoji" font-size="11.489800852140872px" fill="#e03131" text-anchor="middle" style="white-space: pre;" direction="ltr" dominant-baseline="text-before-edge">pod A</text></g><g stroke-linecap="round"><g stroke-opacity="0.3" fill-opacity="0.3" transform="translate(502.7819450666592 346.9759402338246) rotate(0 216.49665230019596 -38.66126349659433)"><path d="M-0.96 1.04 C57.52 -6.98, 279 -33.87, 351.49 -47.1 C423.97 -60.34, 420.34 -73.29, 433.95 -78.36 M0.74 0.54 C59.52 -7.3, 281.6 -35.86, 353.65 -48.85 C425.69 -61.85, 419.83 -72.84, 433.03 -77.44" stroke="#2f9e44" stroke-width="1" fill="none"></path></g><g stroke-opacity="0.3" fill-opacity="0.3" transform="translate(502.7819450666592 346.9759402338246) rotate(0 216.49665230019596 -38.66126349659433)"><path d="M416.12 -55.7 C421.94 -62.59, 426.11 -72.21, 433.12 -75.46 M414.65 -54.77 C422.72 -62.64, 429.17 -72.76, 432.66 -76.81" stroke="#2f9e44" stroke-width="1" fill="none"></path></g><g stroke-opacity="0.3" fill-opacity="0.3" transform="translate(502.7819450666592 346.9759402338246) rotate(0 216.49665230019596 -38.66126349659433)"><path d="M405.37 -73.19 C415.14 -73.81, 423.1 -77.26, 433.12 -75.46 M403.91 -72.25 C416.18 -73.08, 426.92 -76.22, 432.66 -76.81" stroke="#2f9e44" stroke-width="1" fill="none"></path></g></g><mask></mask><g stroke-linecap="round"><g stroke-opacity="0.4" fill-opacity="0.4" transform="translate(500.2716874590841 374.52504858532336) rotate(0 268.20034639124555 18.689928821939475)"><path d="M-0.43 0.68 C69.71 2.82, 331.79 7.13, 420.94 13.09 C510.08 19.05, 515.5 32.46, 534.46 36.43 M1.55 -0.01 C71.53 2.23, 330.81 7.89, 420.02 14.12 C509.24 20.35, 517.73 33.43, 536.83 37.39" stroke="#1971c2" stroke-width="1" fill="none"></path></g><g stroke-opacity="0.4" fill-opacity="0.4" transform="translate(500.2716874590841 374.52504858532336) rotate(0 268.20034639124555 18.689928821939475)"><path d="M507.97 38.33 C514.48 36.38, 524.21 36.56, 536.45 39.16 M505.98 38.65 C513.42 38.83, 520.43 38.03, 536.54 37.01" stroke="#1971c2" stroke-width="1" fill="none"></path></g><g stroke-opacity="0.4" fill-opacity="0.4" transform="translate(500.2716874590841 374.52504858532336) rotate(0 268.20034639124555 18.689928821939475)"><path d="M514.46 18.86 C519.01 22.9, 526.73 29.09, 536.45 39.16 M512.46 19.18 C518.3 24.07, 523.74 27.96, 536.54 37.01" stroke="#1971c2" stroke-width="1" fill="none"></path></g></g><mask></mask><g stroke-linecap="round"><g stroke-opacity="0.4" fill-opacity="0.4" transform="translate(512.9461220653134 458.42607227810015) rotate(0 182.1386571338647 27.10425828868881)"><path d="M-0.67 0.38 C23.79 8.29, 85.98 37.93, 146.92 46.83 C207.85 55.73, 328.55 52.64, 364.94 53.79 M1.18 -0.46 C26.03 7.72, 88.78 39.22, 149.28 48.4 C209.78 57.59, 328.11 53.66, 364.19 54.65" stroke="#e03131" stroke-width="1" fill="none"></path></g><g stroke-opacity="0.4" fill-opacity="0.4" transform="translate(512.9461220653134 458.42607227810015) rotate(0 182.1386571338647 27.10425828868881)"><path d="M336.63 63.78 C344.98 61.88, 352.25 59.28, 362.69 54.87 M335.37 65.73 C344.2 62.39, 353.63 58.81, 363.87 53.83" stroke="#e03131" stroke-width="1" fill="none"></path></g><g stroke-opacity="0.4" fill-opacity="0.4" transform="translate(512.9461220653134 458.42607227810015) rotate(0 182.1386571338647 27.10425828868881)"><path d="M336.65 43.26 C344.89 47.78, 352.14 51.59, 362.69 54.87 M335.39 45.21 C344.24 48.17, 353.66 50.9, 363.87 53.83" stroke="#e03131" stroke-width="1" fill="none"></path></g></g><mask></mask><g stroke-opacity="0.4" fill-opacity="0.4" transform="translate(684.3079892627056 360.8111585643432) rotate(3.2531890910582786 15.983985900878906 7.505066539497676)"><text x="0" y="0" font-family="Virgil, Segoe UI Emoji" font-size="12.008106463196247px" fill="#1971c2" text-anchor="start" style="white-space: pre;" direction="ltr" dominant-baseline="text-before-edge">route</text></g><g stroke-linecap="round" transform="translate(60.9416061700179 304.8836389754509) rotate(0 25.81742889587193 33.322495435369575)"><path d="M12.91 0 M12.91 0 C21.11 1.85, 27.05 0.01, 38.73 0 M12.91 0 C19.01 -0.25, 26.34 -0.27, 38.73 0 M38.73 0 C46.78 1.16, 51.07 5.47, 51.63 12.91 M38.73 0 C47.29 -0.89, 50.43 2.67, 51.63 12.91 M51.63 12.91 C52.91 25.04, 50.14 35.54, 51.63 53.74 M51.63 12.91 C52.18 23.92, 51.85 35.57, 51.63 53.74 M51.63 53.74 C52.41 60.79, 47.17 65.77, 38.73 66.64 M51.63 53.74 C49.59 63.11, 46.51 66.45, 38.73 66.64 M38.73 66.64 C29 68.81, 18.73 65.99, 12.91 66.64 M38.73 66.64 C30.93 66.49, 22.29 67.09, 12.91 66.64 M12.91 66.64 C4.13 65.36, -1.84 64.03, 0 53.74 M12.91 66.64 C2.57 66.76, 0.95 62.38, 0 53.74 M0 53.74 C0.06 40.71, 0.41 28.01, 0 12.91 M0 53.74 C-0.08 37.54, 0.19 23.91, 0 12.91 M0 12.91 C-0.79 3.82, 5.53 -0.59, 12.91 0 M0 12.91 C1.01 5.46, 4.31 1.77, 12.91 0" stroke="#1e1e1e" stroke-width="1" fill="none"></path></g><g transform="translate(72.72664065671015 331.358295958231) rotate(0 14.032394409179691 6.847838452589457)"><text x="14.032394409179688" y="0" font-family="Virgil, Segoe UI Emoji" font-size="10.95654152414314px" fill="#e03131" text-anchor="middle" style="white-space: pre;" direction="ltr" dominant-baseline="text-before-edge">client</text></g><g stroke-linecap="round" transform="translate(10 413.9032252263023) rotate(0 25.817428895871927 33.3224954353696)"><path d="M12.91 0 M12.91 0 C19.24 -1.7, 28.13 1.27, 38.73 0 M12.91 0 C19.24 0.23, 26.92 0.8, 38.73 0 M38.73 0 C48.71 -1.13, 52.19 6.3, 51.63 12.91 M38.73 0 C46.1 -1.76, 53.4 2.45, 51.63 12.91 M51.63 12.91 C51.31 22.56, 52.84 33.22, 51.63 53.74 M51.63 12.91 C52.64 27.14, 52.09 41.31, 51.63 53.74 M51.63 53.74 C50.93 63.92, 45.94 66.29, 38.73 66.64 M51.63 53.74 C49.63 64.04, 48.19 65.18, 38.73 66.64 M38.73 66.64 C31.29 66.34, 24.09 64.8, 12.91 66.64 M38.73 66.64 C32.87 67.52, 27.07 67.65, 12.91 66.64 M12.91 66.64 C5.44 66.17, -1.11 60.36, 0 53.74 M12.91 66.64 C2.05 64.9, 1.98 64.51, 0 53.74 M0 53.74 C0.25 40.28, 1.55 30.51, 0 12.91 M0 53.74 C0.67 39.55, 0.21 26.22, 0 12.91 M0 12.91 C0.86 5.18, 3.9 -1.7, 12.91 0 M0 12.91 C2.01 3.84, 4.61 0.99, 12.91 0" stroke="#1e1e1e" stroke-width="1" fill="none"></path></g><g transform="translate(21.78503448669224 440.3778822090824) rotate(0 14.032394409179688 6.847838452589485)"><text x="14.032394409179688" y="0" font-family="Virgil, Segoe UI Emoji" font-size="10.95654152414314px" fill="#e03131" text-anchor="middle" style="white-space: pre;" direction="ltr" dominant-baseline="text-before-edge">client</text></g><g stroke-linecap="round" transform="translate(55.83526666288196 552.7377870185343) rotate(0 25.817428895871927 33.3224954353696)"><path d="M12.91 0 M12.91 0 C20.56 1.69, 25.8 -2.03, 38.73 0 M12.91 0 C17.71 -0.18, 24.21 0.53, 38.73 0 M38.73 0 C47.66 -0.24, 50.91 3.57, 51.63 12.91 M38.73 0 C46.63 -0.66, 52.3 5.5, 51.63 12.91 M51.63 12.91 C51.64 29.23, 49.58 43.42, 51.63 53.74 M51.63 12.91 C51.85 28.36, 50.28 43.24, 51.63 53.74 M51.63 53.74 C52.41 60.41, 45.62 67.19, 38.73 66.64 M51.63 53.74 C50.31 62.52, 45.31 67.05, 38.73 66.64 M38.73 66.64 C34.06 65.48, 28.13 67.99, 12.91 66.64 M38.73 66.64 C28.57 67.41, 18.89 65.77, 12.91 66.64 M12.91 66.64 C5.19 65.67, -1.2 61.15, 0 53.74 M12.91 66.64 C3.73 65.71, -1.74 61.69, 0 53.74 M0 53.74 C-1.46 45.88, 0.39 36.33, 0 12.91 M0 53.74 C-0.13 43.51, 0.56 31.91, 0 12.91 M0 12.91 C1.14 3.66, 5.93 -1.29, 12.91 0 M0 12.91 C-1.76 4.45, 5.09 2.2, 12.91 0" stroke="#1e1e1e" stroke-width="1" fill="none"></path></g><g transform="translate(67.6203011495742 579.2124440013145) rotate(0 14.03239440917969 6.847838452589485)"><text x="14.032394409179688" y="0" font-family="Virgil, Segoe UI Emoji" font-size="10.95654152414314px" fill="#e03131" text-anchor="middle" style="white-space: pre;" direction="ltr" dominant-baseline="text-before-edge">client</text></g><g stroke-linecap="round"><g stroke-opacity="0.3" fill-opacity="0.3" transform="translate(144.53943366219386 338.09394885867664) rotate(0 106.312517838269 15.162800896127749)"><path d="M0.22 0.38 C35.65 5.38, 178.35 25.8, 213.75 30.79 M-1.12 -0.46 C34.14 4.13, 177.9 23.71, 213.39 29.08" stroke="#2f9e44" stroke-width="1" fill="none"></path></g><g stroke-opacity="0.3" fill-opacity="0.3" transform="translate(144.53943366219386 338.09394885867664) rotate(0 106.312517838269 15.162800896127749)"><path d="M184.67 37.12 C196.96 32.69, 207.81 28.61, 212.48 30.58 M183.52 35.25 C195.06 32.83, 208.25 30.73, 213.19 30.04" stroke="#2f9e44" stroke-width="1" fill="none"></path></g><g stroke-opacity="0.3" fill-opacity="0.3" transform="translate(144.53943366219386 338.09394885867664) rotate(0 106.312517838269 15.162800896127749)"><path d="M187.56 16.8 C198.84 20.44, 208.55 24.41, 212.48 30.58 M186.42 14.93 C196.78 20.55, 208.82 26.48, 213.19 30.04" stroke="#2f9e44" stroke-width="1" fill="none"></path></g></g><mask></mask><g stroke-linecap="round"><g stroke-opacity="0.4" fill-opacity="0.4" transform="translate(78.3920949152359 446.0065565356133) rotate(0 138.59411339710906 -2.287550818931834)"><path d="M1.01 -0.02 C47.12 -0.45, 231.11 -2.31, 277.1 -2.89 M0.09 -1.07 C46.06 -1.8, 230.45 -4.39, 276.52 -4.56" stroke="#1971c2" stroke-width="1" fill="none"></path></g><g stroke-opacity="0.4" fill-opacity="0.4" transform="translate(78.3920949152359 446.0065565356133) rotate(0 138.59411339710906 -2.287550818931834)"><path d="M248.4 7.14 C259.43 3.1, 267.87 -3.26, 277.88 -4.84 M248.48 5.97 C255.91 2.49, 266.07 0.76, 276.32 -4.39" stroke="#1971c2" stroke-width="1" fill="none"></path></g><g stroke-opacity="0.4" fill-opacity="0.4" transform="translate(78.3920949152359 446.0065565356133) rotate(0 138.59411339710906 -2.287550818931834)"><path d="M248.2 -13.38 C259.25 -10.47, 267.75 -9.87, 277.88 -4.84 M248.28 -14.55 C255.62 -11.98, 265.84 -7.65, 276.32 -4.39" stroke="#1971c2" stroke-width="1" fill="none"></path></g></g><mask></mask><g stroke-linecap="round"><g stroke-opacity="0.4" fill-opacity="0.4" transform="translate(131.33162332931974 589.9247401737356) rotate(0 111.15434251758573 -20.391303715056495)"><path d="M-0.33 0.4 C36.85 -6.61, 185.43 -34.43, 222.64 -41.18 M1.7 -0.44 C38.82 -7.39, 185.21 -33.7, 222.02 -40.05" stroke="#e03131" stroke-width="1" fill="none"></path></g><g stroke-opacity="0.4" fill-opacity="0.4" transform="translate(131.33162332931974 589.9247401737356) rotate(0 111.15434251758573 -20.391303715056495)"><path d="M196.71 -23.97 C201.47 -27.43, 210.16 -32.27, 223.34 -38.96 M195.45 -24.68 C201.71 -28.5, 210.07 -32.09, 222.76 -39.13" stroke="#e03131" stroke-width="1" fill="none"></path></g><g stroke-opacity="0.4" fill-opacity="0.4" transform="translate(131.33162332931974 589.9247401737356) rotate(0 111.15434251758573 -20.391303715056495)"><path d="M193.14 -44.18 C198.98 -42.31, 208.61 -41.82, 223.34 -38.96 M191.87 -44.88 C198.9 -43.69, 208.15 -42.24, 222.76 -39.13" stroke="#e03131" stroke-width="1" fill="none"></path></g></g><mask></mask><g stroke-opacity="0.4" fill-opacity="0.4" transform="translate(130.90821327549685 419.18491070823063) rotate(0.4986698465077567 80.83192443847655 7.505066539497648)"><text x="0" y="0" font-family="Virgil, Segoe UI Emoji" font-size="12.008106463196247px" fill="#1971c2" text-anchor="start" style="white-space: pre;" direction="ltr" dominant-baseline="text-before-edge">GET http://foo.com:80/foo</text></g><g stroke-linecap="round"><g transform="translate(527.1591408363169 210.3776842814409) rotate(0 100.68652140061269 -3.4668197413786004)"><path d="M-0.24 0.87 C33.43 -0.48, 168 -6.18, 201.61 -7.8" stroke="#e03131" stroke-width="1.5" fill="none" stroke-dasharray="8 9"></path></g><g transform="translate(527.1591408363169 210.3776842814409) rotate(0 100.68652140061269 -3.4668197413786004)"><path d="M175.36 4.18 C181.48 0.89, 187.05 -2.55, 200.29 -5.94" stroke="#e03131" stroke-width="1.5" fill="none"></path></g><g transform="translate(527.1591408363169 210.3776842814409) rotate(0 100.68652140061269 -3.4668197413786004)"><path d="M174.44 -16.32 C180.86 -14.15, 186.67 -12.13, 200.29 -5.94" stroke="#e03131" stroke-width="1.5" fill="none"></path></g></g><mask></mask><g transform="translate(566.1241652277101 220.0101578288186) rotate(0 36.42594909667969 7.505066539497648)"><text x="0" y="0" font-family="Virgil, Segoe UI Emoji" font-size="12.008106463196246px" fill="#e03131" text-anchor="start" style="white-space: pre;" direction="ltr" dominant-baseline="text-before-edge">ingest config</text></g><g stroke-opacity="0.4" fill-opacity="0.4" transform="translate(146.12263153185705 538.9475935202803) rotate(346.1814192430118 88.12192535400389 7.505066539497648)"><text x="0" y="0" font-family="Virgil, Segoe UI Emoji" font-size="12.008106463196247px" fill="#e03131" text-anchor="start" style="white-space: pre;" direction="ltr" dominant-baseline="text-before-edge">GET https://bar.com:443/baz</text></g><g stroke-opacity="0.3" fill-opacity="0.3" transform="translate(152.41960151545942 326.61853447105165) rotate(12.972717124114798 80.89792633056639 7.505066539497648)"><text x="0" y="0" font-family="Virgil, Segoe UI Emoji" font-size="12.008106463196247px" fill="#2f9e44" text-anchor="start" style="white-space: pre;" direction="ltr" dominant-baseline="text-before-edge">GET http://foo.com:80/bar</text></g><g stroke-linecap="round" transform="translate(371.41980144608885 81.872397712554) rotate(0 75 25)"><path d="M12.5 0 M12.5 0 C47.37 -0.33, 82.89 0.84, 137.5 0 M137.5 0 C145.38 0.98, 148.15 2.68, 150 12.5 M150 12.5 C149.36 23.1, 151.19 32.99, 150 37.5 M150 37.5 C151.84 47.68, 144.09 51.28, 137.5 50 M137.5 50 C94.47 47.13, 48.62 48.19, 12.5 50 M12.5 50 C4.42 49.59, 0.27 46.71, 0 37.5 M0 37.5 C-1.47 30.82, 1.23 25.85, 0 12.5 M0 12.5 C0.84 2.9, 3.47 1.24, 12.5 0" stroke="#1e1e1e" stroke-width="1.5" fill="none" stroke-dasharray="8 9"></path></g><g transform="translate(410.410196038374 99.68986523988139) rotate(0 36.009605407714844 7.182532472672619)"><text x="36.009605407714844" y="0" font-family="Virgil, Segoe UI Emoji" font-size="11.492051956276189px" fill="#e03131" text-anchor="middle" style="white-space: pre;" direction="ltr" dominant-baseline="text-before-edge">ingress class</text></g><g stroke-linecap="round"><g transform="translate(441.64757975257805 184.83999124596755) rotate(0 0.5558345685700772 -23.72896949284643)"><path d="M-0.49 -0.54 C-0.27 -8.48, 1.26 -39.35, 1.6 -46.91" stroke="#e03131" stroke-width="1.5" fill="none" stroke-dasharray="8 9"></path></g><g transform="translate(441.64757975257805 184.83999124596755) rotate(0 0.5558345685700772 -23.72896949284643)"><path d="M7.58 -26.01 C5.05 -33.26, 4.5 -39.61, 1.49 -47.36" stroke="#e03131" stroke-width="1.5" fill="none"></path></g><g transform="translate(441.64757975257805 184.83999124596755) rotate(0 0.5558345685700772 -23.72896949284643)"><path d="M-8.25 -26.75 C-5.64 -33.7, -1.08 -39.81, 1.49 -47.36" stroke="#e03131" stroke-width="1.5" fill="none"></path></g></g><mask></mask><g transform="translate(468.2393873471717 147.17792262114733) rotate(0 20.051979064941406 15.010133078995295)"><text x="0" y="0" font-family="Virgil, Segoe UI Emoji" font-size="12.008106463196247px" fill="#e03131" text-anchor="start" style="white-space: pre;" direction="ltr" dominant-baseline="text-before-edge">ingest </text><text x="0" y="15.01013307899531" font-family="Virgil, Segoe UI Emoji" font-size="12.008106463196247px" fill="#e03131" text-anchor="start" style="white-space: pre;" direction="ltr" dominant-baseline="text-before-edge">config</text></g><g stroke-opacity="0.4" fill-opacity="0.4" transform="translate(553.1145874499238 485.995015775876) rotate(13.636369516116787 15.983985900878906 7.505066539497648)"><text x="0" y="0" font-family="Virgil, Segoe UI Emoji" font-size="12.008106463196247px" fill="#e03131" text-anchor="start" style="white-space: pre;" direction="ltr" dominant-baseline="text-before-edge">route</text></g><g stroke-opacity="0.3" fill-opacity="0.3" transform="translate(764.1182185527377 321.92361946675555) rotate(0.16234964489668777 15.983985900878906 7.505066539497648)"><text x="0" y="0" font-family="Virgil, Segoe UI Emoji" font-size="12.008106463196247px" fill="#2f9e44" text-anchor="start" style="white-space: pre;" direction="ltr" dominant-baseline="text-before-edge">route</text></g><g stroke-linecap="round" transform="translate(708.2577883657582 404.10402541436963) rotate(0 211.49860216042305 105.58187932492939)"><path d="M32 0 M32 0 C142.98 -1.72, 255.48 -0.45, 391 0 M32 0 C132.33 -1.69, 233.13 -1.71, 391 0 M391 0 C411.75 1.78, 424.68 9.05, 423 32 M391 0 C412.18 -0.22, 424.55 12.71, 423 32 M423 32 C423.46 82.47, 424.01 135.29, 423 179.16 M423 32 C422.36 84.97, 421.63 135.94, 423 179.16 M423 179.16 C422.3 198.52, 411.33 212.7, 391 211.16 M423 179.16 C422.22 202.41, 413.78 210.03, 391 211.16 M391 211.16 C268.07 214.05, 141.97 212.33, 32 211.16 M391 211.16 C297.29 210.91, 204.82 210.26, 32 211.16 M32 211.16 C8.91 212.46, 0.48 198.66, 0 179.16 M32 211.16 C11.99 210.19, -1.49 199.31, 0 179.16 M0 179.16 C0.7 135.26, -1.06 89.36, 0 32 M0 179.16 C-0.83 142.99, -1.79 104.6, 0 32 M0 32 C-0.54 9.36, 12.1 -0.47, 32 0 M0 32 C0.84 9.25, 9.6 0.42, 32 0" stroke="#1e1e1e" stroke-width="1" fill="none"></path></g><g stroke-linecap="round" transform="translate(737.8864233647414 451.8571761887066) rotate(0 49.67770983675433 24.640144079030165)"><path d="M12.32 0 M12.32 0 C40.31 1.94, 67.63 1.36, 87.04 0 M87.04 0 C97.17 -0.2, 100.93 5.21, 99.36 12.32 M99.36 12.32 C100.96 19.94, 99.16 30.61, 99.36 36.96 M99.36 36.96 C100.7 46.95, 96.38 49.21, 87.04 49.28 M87.04 49.28 C64.78 46.88, 41.48 46.67, 12.32 49.28 M12.32 49.28 C2.88 50.75, 1.65 45.19, 0 36.96 M0 36.96 C-0.91 31.96, -0.59 25.56, 0 12.32 M0 12.32 C1.26 3.12, 5.02 1.69, 12.32 0" stroke="#1e1e1e" stroke-width="1.5" fill="none" stroke-dasharray="8 9"></path></g><g transform="translate(754.0248799666324 469.31478779506426) rotate(0 33.53925323486328 7.182532472672619)"><text x="33.53925323486328" y="0" font-family="Virgil, Segoe UI Emoji" font-size="11.492051956276189px" fill="#e03131" text-anchor="middle" style="white-space: pre;" direction="ltr" dominant-baseline="text-before-edge">user ingress</text></g><g transform="translate(728.9673623582471 420.0776103119666) rotate(0 55.38594055175781 7.505066539497648)"><text x="0" y="0" font-family="Virgil, Segoe UI Emoji" font-size="12.008106463196247px" fill="#e03131" text-anchor="start" style="white-space: pre;" direction="ltr" dominant-baseline="text-before-edge">default namespace</text></g><g stroke-linecap="round"><g transform="translate(534.032614306997 252.15022228892656) rotate(0 96.78598349935322 112.77312385562385)"><path d="M0.68 1.04 C10.12 8.3, 44.44 12.43, 57.34 44.61 C70.24 76.79, 55.5 164.13, 78.09 194.11 C100.68 224.09, 173.92 219.6, 192.89 224.5" stroke="#e03131" stroke-width="1.5" fill="none" stroke-dasharray="8 9"></path></g><g transform="translate(534.032614306997 252.15022228892656) rotate(0 96.78598349935322 112.77312385562385)"><path d="M165.51 230.15 C172.74 227.79, 184.57 227.03, 194.64 223.49" stroke="#e03131" stroke-width="1.5" fill="none"></path></g><g transform="translate(534.032614306997 252.15022228892656) rotate(0 96.78598349935322 112.77312385562385)"><path d="M167.68 209.74 C174.31 214.68, 185.37 221.2, 194.64 223.49" stroke="#e03131" stroke-width="1.5" fill="none"></path></g></g><mask></mask><g transform="translate(603.6822851048742 278.402117211515) rotate(0 20.98847198486328 16.25057456319405)"><text x="0" y="0" font-family="Virgil, Segoe UI Emoji" font-size="13.000459650555246px" fill="#e03131" text-anchor="start" style="white-space: pre;" direction="ltr" dominant-baseline="text-before-edge">ingest</text><text x="0" y="16.250574563194057" font-family="Virgil, Segoe UI Emoji" font-size="13.000459650555246px" fill="#e03131" text-anchor="start" style="white-space: pre;" direction="ltr" dominant-baseline="text-before-edge"> config</text></g><g stroke-linecap="round" transform="translate(1009.6280893418588 150.43071997217936) rotate(0 49.291081946041174 53.999246918347325)"><path d="M5.9 6.46 C5.9 6.46, 5.9 6.46, 5.9 6.46 M5.9 6.46 C5.9 6.46, 5.9 6.46, 5.9 6.46 M0.39 18.89 C6.32 12.36, 7.93 9.63, 14.83 2.29 M0.39 18.89 C6.79 11.98, 11.44 6.68, 14.83 2.29 M0.13 25.29 C8.04 17.95, 15.06 5.16, 21.13 1.14 M0.13 25.29 C7.41 18.24, 13.47 9.09, 21.13 1.14 M0.53 30.93 C11.41 19.86, 20.14 8.65, 26.11 1.5 M0.53 30.93 C6.44 25.63, 9.91 19.24, 26.11 1.5 M0.27 37.33 C8.86 30.13, 15.29 17.4, 31.76 1.11 M0.27 37.33 C10.22 24.62, 20.18 13.86, 31.76 1.11 M0 43.73 C10.26 29.34, 22.45 18.67, 36.74 1.47 M0 43.73 C12.57 30.05, 25.77 14.92, 36.74 1.47 M0.4 49.37 C14.71 33.82, 27.65 17.37, 41.73 1.83 M0.4 49.37 C13.33 33.27, 29.26 16.47, 41.73 1.83 M0.14 55.77 C10.11 43.31, 18.82 32.32, 47.37 1.43 M0.14 55.77 C16.57 37.18, 31.74 18.69, 47.37 1.43 M-0.12 62.17 C19.71 39.02, 40.96 16.34, 52.36 1.79 M-0.12 62.17 C19.09 40.47, 36.79 20.13, 52.36 1.79 M0.27 67.81 C16.21 47.73, 33.47 29.71, 58 1.4 M0.27 67.81 C18.52 45.54, 37.77 25.47, 58 1.4 M0.01 74.21 C19.65 51.19, 40.89 29.2, 62.99 1.76 M0.01 74.21 C22.54 49.66, 43.15 23.82, 62.99 1.76 M-0.25 80.61 C24.93 52.66, 48.87 26.37, 68.63 1.36 M-0.25 80.61 C16.69 60.39, 35.37 38.02, 68.63 1.36 M1.45 84.74 C26.3 57.85, 50.08 29.83, 73.62 1.72 M1.45 84.74 C20.2 64.45, 38.05 43.45, 73.62 1.72 M2.51 89.63 C18.74 72.05, 36.25 48.83, 79.92 0.57 M2.51 89.63 C32.07 56.37, 60.42 22.87, 79.92 0.57 M3.56 94.52 C32.02 64.24, 56.92 31.39, 84.25 1.69 M3.56 94.52 C21.72 73.44, 39.7 54.07, 84.25 1.69 M4.61 99.41 C30.47 70.8, 57.27 39.21, 87.93 3.56 M4.61 99.41 C27.05 72.5, 51.38 45.31, 87.93 3.56 M7.63 102.03 C35.89 69.7, 66.26 37.75, 91.6 5.43 M7.63 102.03 C37.72 66.58, 67.34 32.4, 91.6 5.43 M9.99 105.41 C44.35 69.08, 74.83 28.42, 93.96 8.81 M9.99 105.41 C33.82 78.03, 55.95 52.99, 93.96 8.81 M14.32 106.52 C41.08 74.29, 67.6 41.89, 96.98 11.43 M14.32 106.52 C46.2 69.47, 78.85 32.17, 96.98 11.43 M18.65 107.64 C41.28 82.2, 64.9 53.84, 98.03 16.32 M18.65 107.64 C38.55 83.98, 59.02 61.65, 98.03 16.32 M21.67 110.26 C39.79 87.02, 58.28 66.97, 99.08 21.21 M21.67 110.26 C48.55 79.23, 75.7 46.36, 99.08 21.21 M27.31 109.87 C53.82 78.68, 76.51 49.76, 100.13 26.09 M27.31 109.87 C51.05 80.4, 76.19 52.77, 100.13 26.09 M32.3 110.23 C55.31 86.43, 75.72 61.43, 99.87 32.49 M32.3 110.23 C55.57 81.94, 79.62 55.63, 99.87 32.49 M37.29 110.59 C60.35 81.19, 84.28 55.95, 100.27 38.14 M37.29 110.59 C58.11 88.46, 79.02 63.78, 100.27 38.14 M42.93 110.19 C67.04 85.97, 88.83 57.96, 100.01 44.53 M42.93 110.19 C55.33 96.2, 69.26 82.09, 100.01 44.53 M47.92 110.55 C63.34 94.21, 77.66 72.8, 100.4 50.18 M47.92 110.55 C67.85 86.73, 88.07 63.53, 100.4 50.18 M53.56 110.16 C72.35 91.74, 89.5 71.34, 100.14 56.57 M53.56 110.16 C63.53 98.88, 71.65 89.42, 100.14 56.57 M58.55 110.52 C72.14 96.03, 84.11 81.66, 99.88 62.97 M58.55 110.52 C74.91 92.72, 91.62 73.75, 99.88 62.97 M64.19 110.12 C73.68 102.01, 80.52 94.34, 100.27 68.62 M64.19 110.12 C73.95 98.36, 85.72 86.07, 100.27 68.62 M69.18 110.48 C79.02 98.82, 89.56 88.46, 100.01 75.01 M69.18 110.48 C81.02 97.67, 91.66 83.47, 100.01 75.01 M75.48 109.34 C83.3 101.22, 89.43 92.53, 100.41 80.66 M75.48 109.34 C82.95 100.97, 91.48 92.56, 100.41 80.66 M82.43 107.43 C90.03 98.78, 95.84 92.63, 101.46 85.54 M82.43 107.43 C86.58 102.09, 92.07 96.59, 101.46 85.54" stroke="#ffec99" stroke-width="0.5" fill="none"></path><path d="M24.65 0 M24.65 0 C41.78 1.77, 62.47 0.5, 73.94 0 M24.65 0 C35.56 -0.37, 45.34 -0.71, 73.94 0 M73.94 0 C91.91 -0.13, 97.73 9.97, 98.58 24.65 M73.94 0 C88.26 -0.93, 98.1 9.79, 98.58 24.65 M98.58 24.65 C99.6 41.41, 96.47 54.71, 98.58 83.35 M98.58 24.65 C97.96 46.31, 98.31 68.65, 98.58 83.35 M98.58 83.35 C98.76 100.31, 90.95 109.49, 73.94 108 M98.58 83.35 C100.16 100.41, 89.96 108.35, 73.94 108 M73.94 108 C55.95 108.64, 39.72 106.8, 24.65 108 M73.94 108 C59.52 107.56, 43.28 108.95, 24.65 108 M24.65 108 C9.6 109.24, -0.98 98.52, 0 83.35 M24.65 108 C10.49 108.86, 1.42 98.1, 0 83.35 M0 83.35 C1.38 67.17, -1.2 50.81, 0 24.65 M0 83.35 C-0.78 64.69, -0.54 44.88, 0 24.65 M0 24.65 C1.91 6.59, 6.5 -1.94, 24.65 0 M0 24.65 C0.9 10.11, 6.02 -2.03, 24.65 0" stroke="#1e1e1e" stroke-width="1" fill="none"></path></g><g transform="translate(1043.8115052722749 197.2488413579386) rotate(0 15.107666015625 7.181125532588055)"><text x="15.107666015625" y="0" font-family="Virgil, Segoe UI Emoji" font-size="11.489800852140872px" fill="#e03131" text-anchor="middle" style="white-space: pre;" direction="ltr" dominant-baseline="text-before-edge">pod Y</text></g><g stroke-linecap="round" transform="translate(1007.5141977402963 426.6082102065543) rotate(0 49.291081946041174 53.999246918347296)"><path d="M5.9 6.46 C5.9 6.46, 5.9 6.46, 5.9 6.46 M5.9 6.46 C5.9 6.46, 5.9 6.46, 5.9 6.46 M0.39 18.89 C2.63 15.51, 5.77 8.85, 14.83 2.29 M0.39 18.89 C4.92 14.21, 6.85 9.6, 14.83 2.29 M0.13 25.29 C6.06 17.43, 12.2 12.94, 21.13 1.14 M0.13 25.29 C5.06 18.85, 11.52 12.12, 21.13 1.14 M0.53 30.93 C8.19 20.45, 19.58 9.68, 26.11 1.5 M0.53 30.93 C9.65 18.96, 20.11 7.61, 26.11 1.5 M0.27 37.33 C11.82 26.7, 20.67 15.98, 31.76 1.11 M0.27 37.33 C10.07 25.15, 21.15 13.54, 31.76 1.11 M0 43.73 C9.32 35.7, 16.97 24.75, 36.74 1.47 M0 43.73 C12.06 30.99, 22.98 18.16, 36.74 1.47 M0.4 49.37 C15.05 36.6, 26.69 17.84, 41.73 1.83 M0.4 49.37 C14.25 32.73, 28.82 17.19, 41.73 1.83 M0.14 55.77 C19.34 36.46, 34.66 17.81, 47.37 1.43 M0.14 55.77 C11.94 42.97, 24.33 28.87, 47.37 1.43 M-0.12 62.17 C13.97 43.62, 30.27 24.02, 52.36 1.79 M-0.12 62.17 C12.12 47.14, 25.36 33.81, 52.36 1.79 M0.27 67.81 C19.06 45.86, 37.08 26.16, 58 1.4 M0.27 67.81 C17.41 49.5, 34.09 30.52, 58 1.4 M0.01 74.21 C15.71 54.84, 36.46 34.37, 62.99 1.76 M0.01 74.21 C22.9 49.09, 46.55 23.54, 62.99 1.76 M-0.25 80.61 C20.68 56.28, 43.1 32.51, 68.63 1.36 M-0.25 80.61 C25.97 51.04, 51.78 19.93, 68.63 1.36 M1.45 84.74 C21.3 65.62, 36.95 44.57, 73.62 1.72 M1.45 84.74 C19.51 65.47, 35.95 45.3, 73.62 1.72 M2.51 89.63 C25.32 62.22, 49.29 30.96, 79.92 0.57 M2.51 89.63 C28.9 57.06, 55.96 25.93, 79.92 0.57 M3.56 94.52 C22.57 73.38, 40.18 53.98, 84.25 1.69 M3.56 94.52 C26.44 67.64, 52.06 38.86, 84.25 1.69 M4.61 99.41 C29.3 71.62, 57.22 39.5, 87.93 3.56 M4.61 99.41 C35.14 63.1, 64.67 28.1, 87.93 3.56 M7.63 102.03 C39.25 68.43, 68.99 34.64, 91.6 5.43 M7.63 102.03 C38.03 67.69, 67.45 32.82, 91.6 5.43 M9.99 105.41 C35.28 73.15, 60.06 46.65, 93.96 8.81 M9.99 105.41 C43.74 66.43, 76.84 28.71, 93.96 8.81 M14.32 106.52 C35.29 81.93, 55.81 56.89, 96.98 11.43 M14.32 106.52 C39.56 78.38, 64.48 49.01, 96.98 11.43 M18.65 107.64 C45.3 74.11, 77.64 40.2, 98.03 16.32 M18.65 107.64 C47.16 74.1, 76.18 41.28, 98.03 16.32 M21.67 110.26 C43.69 86.08, 63 61.97, 99.08 21.21 M21.67 110.26 C52.07 74.38, 82.06 39.46, 99.08 21.21 M27.31 109.87 C42.53 95.03, 55.19 76.36, 100.13 26.09 M27.31 109.87 C42.92 90.24, 59.57 73.39, 100.13 26.09 M32.3 110.23 C57.43 81.7, 83.85 49.59, 99.87 32.49 M32.3 110.23 C59 81.04, 85.11 49.74, 99.87 32.49 M37.29 110.59 C56.63 83.82, 81.49 60.89, 100.27 38.14 M37.29 110.59 C53.07 93.33, 69.19 74.86, 100.27 38.14 M42.93 110.19 C61.76 87.84, 80.3 67.49, 100.01 44.53 M42.93 110.19 C55.68 95.34, 67.8 80.58, 100.01 44.53 M47.92 110.55 C56.53 97.29, 70.15 86.53, 100.4 50.18 M47.92 110.55 C68.21 89.39, 86.85 66.42, 100.4 50.18 M53.56 110.16 C67.95 95.38, 78.43 80.46, 100.14 56.57 M53.56 110.16 C68.31 93.24, 84.04 75.13, 100.14 56.57 M58.55 110.52 C73.34 92.84, 93.29 71.34, 99.88 62.97 M58.55 110.52 C67.58 99.65, 76.51 89.81, 99.88 62.97 M64.19 110.12 C77.77 93.86, 88.3 79.9, 100.27 68.62 M64.19 110.12 C74.82 98, 86.61 85.82, 100.27 68.62 M69.18 110.48 C76.76 104.47, 82.65 94.73, 100.01 75.01 M69.18 110.48 C78.6 101.47, 86.06 91, 100.01 75.01 M75.48 109.34 C84.63 99.35, 88.45 93.06, 100.41 80.66 M75.48 109.34 C81.76 103.54, 86.29 96.03, 100.41 80.66 M82.43 107.43 C88.41 98.19, 93.98 91.57, 101.46 85.54 M82.43 107.43 C90.39 98.84, 96.5 90.44, 101.46 85.54" stroke="#a5d8ff" stroke-width="0.5" fill="none"></path><path d="M24.65 0 M24.65 0 C37.38 0.79, 47.62 -1.67, 73.94 0 M24.65 0 C43.04 0.84, 60 0.31, 73.94 0 M73.94 0 C91.62 -1.69, 99.71 8.33, 98.58 24.65 M73.94 0 C91.06 -1.58, 96.43 9.45, 98.58 24.65 M98.58 24.65 C100.43 45.8, 97.29 62.62, 98.58 83.35 M98.58 24.65 C99.56 44.7, 99.48 62.54, 98.58 83.35 M98.58 83.35 C98.48 98.56, 90.28 108.16, 73.94 108 M98.58 83.35 C98.09 99.24, 89.49 108.9, 73.94 108 M73.94 108 C60.19 107.4, 50.57 108.48, 24.65 108 M73.94 108 C62.67 108.22, 52.65 107.77, 24.65 108 M24.65 108 C9.88 107.18, 1.68 101.19, 0 83.35 M24.65 108 C9.7 107.88, -1.68 100.2, 0 83.35 M0 83.35 C-2.02 63.49, 1.01 44.64, 0 24.65 M0 83.35 C-1.17 63.09, 0.28 43.54, 0 24.65 M0 24.65 C-0.33 6.77, 10.17 0.82, 24.65 0 M0 24.65 C-0.49 10.1, 6.04 -0.29, 24.65 0" stroke="#1e1e1e" stroke-width="1" fill="none"></path></g><g transform="translate(1041.3646974109467 473.42633159231355) rotate(0 15.440582275390625 7.181125532588055)"><text x="15.440582275390625" y="0" font-family="Virgil, Segoe UI Emoji" font-size="11.489800852140872px" fill="#e03131" text-anchor="middle" style="white-space: pre;" direction="ltr" dominant-baseline="text-before-edge">pod F</text></g><g stroke-linecap="round" transform="translate(439.3818007808029 418.4233252370957) rotate(0 29 34)"><path d="M14.5 0 M14.5 0 C25.42 1.26, 35.54 1.67, 43.5 0 M14.5 0 C20.53 0.07, 27.23 0.5, 43.5 0 M43.5 0 C53.81 -0.27, 58.72 2.95, 58 14.5 M43.5 0 C52.31 -0.73, 57.44 5.4, 58 14.5 M58 14.5 C59.73 25.51, 58.75 39.5, 58 53.5 M58 14.5 C58.84 30.21, 57.29 45.79, 58 53.5 M58 53.5 C56.09 64.86, 54.83 68.08, 43.5 68 M58 53.5 C58.34 62.33, 54.16 69.11, 43.5 68 M43.5 68 C31.29 69.35, 19.91 69.1, 14.5 68 M43.5 68 C33.71 67.04, 23.13 68.57, 14.5 68 M14.5 68 C5.33 69.94, -0.74 62.34, 0 53.5 M14.5 68 C5 68.93, -1.19 64.19, 0 53.5 M0 53.5 C0.56 40.49, 1.41 26.85, 0 14.5 M0 53.5 C0.61 42.22, -0.24 30.81, 0 14.5 M0 14.5 C0.37 3.1, 4.11 0, 14.5 0 M0 14.5 C-2.02 7.06, 6.38 0.14, 14.5 0" stroke="#1e1e1e" stroke-width="1" fill="none"></path></g><g transform="translate(458.27941430619353 423.6988231067436) rotate(0 10.102386474609375 28.724502130352164)"><text x="10.102386474609375" y="0" font-family="Virgil, Segoe UI Emoji" font-size="11.489800852140872px" fill="#e03131" text-anchor="middle" style="white-space: pre;" direction="ltr" dominant-baseline="text-before-edge"></text><text x="10.102386474609375" y="14.36225106517609" font-family="Virgil, Segoe UI Emoji" font-size="11.489800852140872px" fill="#e03131" text-anchor="middle" style="white-space: pre;" direction="ltr" dominant-baseline="text-before-edge">j8a</text><text x="10.102386474609375" y="28.72450213035218" font-family="Virgil, Segoe UI Emoji" font-size="11.489800852140872px" fill="#e03131" text-anchor="middle" style="white-space: pre;" direction="ltr" dominant-baseline="text-before-edge">pod</text><text x="10.102386474609375" y="43.086753195528274" font-family="Virgil, Segoe UI Emoji" font-size="11.489800852140872px" fill="#e03131" text-anchor="middle" style="white-space: pre;" direction="ltr" dominant-baseline="text-before-edge"></text></g><g stroke-linecap="round" transform="translate(439.69034802782676 507.58115633828595) rotate(0 29 34)"><path d="M14.5 0 M14.5 0 C22.62 -0.22, 26.39 1.15, 43.5 0 M14.5 0 C23.94 0.37, 32.87 -0.67, 43.5 0 M43.5 0 C54.29 1.53, 58.64 5.33, 58 14.5 M43.5 0 C53.72 2.27, 57.65 3.22, 58 14.5 M58 14.5 C56.96 26.45, 58.34 40.27, 58 53.5 M58 14.5 C57.22 27.82, 58.21 40.27, 58 53.5 M58 53.5 C56.2 63.73, 54.71 69.54, 43.5 68 M58 53.5 C55.76 63, 51.06 69.2, 43.5 68 M43.5 68 C34.6 67.08, 30.42 69.18, 14.5 68 M43.5 68 C37.95 68.32, 31.01 68.32, 14.5 68 M14.5 68 C5.53 69.03, 0.63 61.34, 0 53.5 M14.5 68 C2.9 67.84, 0.97 63.42, 0 53.5 M0 53.5 C1.2 42.33, -0.84 31.68, 0 14.5 M0 53.5 C-0.82 43.01, 0.68 35.16, 0 14.5 M0 14.5 C1.8 5.01, 2.95 0.66, 14.5 0 M0 14.5 C1.02 4.67, 6.22 -2.1, 14.5 0" stroke="#1e1e1e" stroke-width="1" fill="none"></path></g><g transform="translate(458.5879615532174 512.8566542079337) rotate(0 10.102386474609375 28.724502130352164)"><text x="10.102386474609375" y="0" font-family="Virgil, Segoe UI Emoji" font-size="11.489800852140872px" fill="#e03131" text-anchor="middle" style="white-space: pre;" direction="ltr" dominant-baseline="text-before-edge"></text><text x="10.102386474609375" y="14.36225106517609" font-family="Virgil, Segoe UI Emoji" font-size="11.489800852140872px" fill="#e03131" text-anchor="middle" style="white-space: pre;" direction="ltr" dominant-baseline="text-before-edge">j8a</text><text x="10.102386474609375" y="28.72450213035218" font-family="Virgil, Segoe UI Emoji" font-size="11.489800852140872px" fill="#e03131" text-anchor="middle" style="white-space: pre;" direction="ltr" dominant-baseline="text-before-edge">pod</text><text x="10.102386474609375" y="43.086753195528274" font-family="Virgil, Segoe UI Emoji" font-size="11.489800852140872px" fill="#e03131" text-anchor="middle" style="white-space: pre;" direction="ltr" dominant-baseline="text-before-edge"></text></g><g stroke-linecap="round" transform="translate(415.4164106208326 305.36212150755694) rotate(0 53.5 146)"><path d="M26.75 0 M26.75 0 C42.58 0.14, 61.51 0.83, 80.25 0 M26.75 0 C41.63 0.02, 55.11 -0.23, 80.25 0 M80.25 0 C99.72 1.32, 108.07 8.57, 107 26.75 M80.25 0 C99.68 -0.99, 108.85 8.45, 107 26.75 M107 26.75 C105.02 83.18, 105.77 138.23, 107 265.25 M107 26.75 C108.25 85.87, 108.65 146.61, 107 265.25 M107 265.25 C107.34 284.2, 98.49 293.91, 80.25 292 M107 265.25 C108.04 282.49, 96.99 292.75, 80.25 292 M80.25 292 C66.06 293.54, 53.42 291.61, 26.75 292 M80.25 292 C60.88 291.01, 43.69 290.92, 26.75 292 M26.75 292 C9.88 293.54, 1.81 282.44, 0 265.25 M26.75 292 C8.27 293.32, -1.17 280.82, 0 265.25 M0 265.25 C-1.11 198.44, 0.86 130.73, 0 26.75 M0 265.25 C-0.99 189.85, -0.87 113.58, 0 26.75 M0 26.75 C0.66 9.16, 7.18 -0.77, 26.75 0 M0 26.75 C-1.83 10.52, 10.98 1.74, 26.75 0" stroke="#1e1e1e" stroke-width="1" fill="none"></path></g><g transform="translate(420.4164106208326 310.36212150755694) rotate(0 45.156517028808594 7.181125532588055)"><text x="0" y="0" font-family="Virgil, Segoe UI Emoji" font-size="11.489800852140872px" fill="#e03131" text-anchor="start" style="white-space: pre;" direction="ltr" dominant-baseline="text-before-edge"> j8a deployment</text></g><g stroke-linecap="round" transform="translate(366.75109254047527 307.59070107414914) rotate(0 16.041939871651806 143.9283156622024)"><path d="M8.02 0 M8.02 0 C13.47 -0.8, 17.1 -1.34, 24.06 0 M8.02 0 C12.44 0.27, 16.1 -0.24, 24.06 0 M24.06 0 C30.77 1.17, 32.87 0.82, 32.08 8.02 M24.06 0 C30.46 2.07, 30.99 4.16, 32.08 8.02 M32.08 8.02 C30.89 73.5, 30.8 136.07, 32.08 279.84 M32.08 8.02 C32.67 99.35, 33.63 189.83, 32.08 279.84 M32.08 279.84 C30.33 284.27, 28.71 286.71, 24.06 287.86 M32.08 279.84 C32.67 283.42, 29.03 288.87, 24.06 287.86 M24.06 287.86 C18.12 288.35, 11.86 288.38, 8.02 287.86 M24.06 287.86 C21.12 288.31, 17.65 288.68, 8.02 287.86 M8.02 287.86 C3.27 288.36, -1.56 284.34, 0 279.84 M8.02 287.86 C2.63 288.83, 0.88 287.46, 0 279.84 M0 279.84 C1.13 191.49, -1.16 100.02, 0 8.02 M0 279.84 C-0.1 180.73, 0.08 80.98, 0 8.02 M0 8.02 C0.24 4.14, 3.81 -1.98, 8.02 0 M0 8.02 C2.01 4.24, 1.32 -1.07, 8.02 0" stroke="#1e1e1e" stroke-width="1" fill="none"></path></g><g stroke-linecap="round"><g transform="translate(385.08642348127466 262.1994828837472) rotate(0 0.19249466412131255 15.748335729620464)"><path d="M0 0.68 C0.13 6.02, 0.4 25.64, 0.39 30.81" stroke="#e03131" stroke-width="1.5" fill="none" stroke-dasharray="8 9"></path></g><g transform="translate(385.08642348127466 262.1994828837472) rotate(0 0.19249466412131255 15.748335729620464)"><path d="M-4.14 17.62 C-4 20.89, -1.34 22.44, 0.64 29.36" stroke="#e03131" stroke-width="1.5" fill="none"></path></g><g transform="translate(385.08642348127466 262.1994828837472) rotate(0 0.19249466412131255 15.748335729620464)"><path d="M6.47 17.54 C3.8 20.83, 3.64 22.4, 0.64 29.36" stroke="#e03131" stroke-width="1.5" fill="none"></path></g></g><mask></mask><g transform="translate(275.3473656902382 440.02601932171933) rotate(270 109.52149963378905 8.832877022879472)"><text x="0" y="0" font-family="Virgil, Segoe UI Emoji" font-size="14.132603236607148px" fill="#e03131" text-anchor="start" style="white-space: pre;" direction="ltr" dominant-baseline="text-before-edge">j8a service (type loadbalancer)</text></g><g stroke-linecap="round"><g transform="translate(465.7015015221874 261.8174048720586) rotate(0 0.7142720749882301 15.330925939313175)"><path d="M0.94 0.16 C0.84 5.39, 0.93 25.37, 0.49 30.5" stroke="#e03131" stroke-width="1.5" fill="none" stroke-dasharray="8 9"></path></g><g transform="translate(465.7015015221874 261.8174048720586) rotate(0 0.7142720749882301 15.330925939313175)"><path d="M-4.09 17.22 C-3.2 20.09, -0.75 26.01, -0.7 31.05" stroke="#e03131" stroke-width="1.5" fill="none"></path></g><g transform="translate(465.7015015221874 261.8174048720586) rotate(0 0.7142720749882301 15.330925939313175)"><path d="M6.51 17.59 C3.24 20.4, 1.53 26.17, -0.7 31.05" stroke="#e03131" stroke-width="1.5" fill="none"></path></g></g><mask></mask><g transform="translate(406.6571561652661 268.2443456644247) rotate(0 20.891983032226562 7.505066539497648)"><text x="0" y="0" font-family="Virgil, Segoe UI Emoji" font-size="12.008106463196247px" fill="#e03131" text-anchor="start" style="white-space: pre;" direction="ltr" dominant-baseline="text-before-edge">manage</text></g><g stroke-linecap="round" transform="translate(739.1811998540185 542.5946697183332) rotate(0 49.67770983675433 24.640144079030165)"><path d="M12.32 0 M12.32 0 C34.95 -0.91, 55.05 -0.96, 87.04 0 M87.04 0 C96.75 -1.11, 100.42 3.34, 99.36 12.32 M99.36 12.32 C100.94 20.93, 99.12 25.01, 99.36 36.96 M99.36 36.96 C98.67 45.6, 93.49 47.64, 87.04 49.28 M87.04 49.28 C62.81 48.45, 41.82 50.31, 12.32 49.28 M12.32 49.28 C3.22 48.75, 1.04 45.67, 0 36.96 M0 36.96 C-1.15 28.15, 0.35 18.27, 0 12.32 M0 12.32 C0.91 4.32, 3.69 -0.71, 12.32 0" stroke="#1e1e1e" stroke-width="1.5" fill="none" stroke-dasharray="8 9"></path></g><g transform="translate(747.8626557234877 552.8697488520181) rotate(0 40.996253967285156 14.365064945345239)"><text x="40.996253967285156" y="0" font-family="Virgil, Segoe UI Emoji" font-size="11.492051956276189px" fill="#e03131" text-anchor="middle" style="white-space: pre;" direction="ltr" dominant-baseline="text-before-edge">j8a </text><text x="40.996253967285156" y="14.365064945345235" font-family="Virgil, Segoe UI Emoji" font-size="11.492051956276189px" fill="#e03131" text-anchor="middle" style="white-space: pre;" direction="ltr" dominant-baseline="text-before-edge">serviceaccount</text></g><g stroke-linecap="round" transform="translate(576.0731153116078 518.7529425977974) rotate(0 51.5 19.36506494534524)"><path d="M9.68 0 M9.68 0 C27.86 1.03, 45.47 -1.41, 93.32 0 M93.32 0 C100.99 0.85, 101.54 2.96, 103 9.68 M103 9.68 C103.05 13.39, 104.67 17.16, 103 29.05 M103 29.05 C103.27 35.6, 100.68 40.56, 93.32 38.73 M93.32 38.73 C71.12 36.39, 47.01 39.69, 9.68 38.73 M9.68 38.73 C1.5 37.01, -1.84 35.77, 0 29.05 M0 29.05 C-1.37 24.85, 0.55 15.86, 0 9.68 M0 9.68 C-0.62 5.04, 4.82 -0.99, 9.68 0" stroke="#1e1e1e" stroke-width="1.5" fill="none" stroke-dasharray="8 9"></path></g><g transform="translate(597.6302289590687 523.7529425977974) rotate(0 29.942886352539062 14.365064945345239)"><text x="29.942886352539062" y="0" font-family="Virgil, Segoe UI Emoji" font-size="11.492051956276189px" fill="#e03131" text-anchor="middle" style="white-space: pre;" direction="ltr" dominant-baseline="text-before-edge">j8a </text><text x="29.942886352539062" y="14.365064945345235" font-family="Virgil, Segoe UI Emoji" font-size="11.492051956276189px" fill="#e03131" text-anchor="middle" style="white-space: pre;" direction="ltr" dominant-baseline="text-before-edge">clusterrole</text></g><g stroke-linecap="round" transform="translate(576.2978758212803 579.7878297429523) rotate(0 52 19.5)"><path d="M9.75 0 M9.75 0 C38.72 -1.35, 73.31 -0.39, 94.25 0 M94.25 0 C102.68 1.93, 104.74 5.08, 104 9.75 M104 9.75 C104.1 16.53, 102.71 21.01, 104 29.25 M104 29.25 C103.22 34.4, 99.91 38.99, 94.25 39 M94.25 39 C69.07 41.57, 47.55 40.93, 9.75 39 M9.75 39 C5.13 39.77, 1.76 36.89, 0 29.25 M0 29.25 C1.64 25.85, 0.74 21.43, 0 9.75 M0 9.75 C-1.31 4.59, 1.37 -0.02, 9.75 0" stroke="#1e1e1e" stroke-width="1.5" fill="none" stroke-dasharray="8 9"></path></g><g transform="translate(581.4072660800693 584.9227647976071) rotate(0 46.89060974121094 14.365064945345239)"><text x="46.89060974121094" y="0" font-family="Virgil, Segoe UI Emoji" font-size="11.492051956276189px" fill="#e03131" text-anchor="middle" style="white-space: pre;" direction="ltr" dominant-baseline="text-before-edge">j8a </text><text x="46.89060974121094" y="14.365064945345235" font-family="Virgil, Segoe UI Emoji" font-size="11.492051956276189px" fill="#e03131" text-anchor="middle" style="white-space: pre;" direction="ltr" dominant-baseline="text-before-edge">clusterrolebinding</text></g><g stroke-linecap="round"><g transform="translate(693.5140901223203 589.3153569521252) rotate(0 15.540037314842152 -5.120100572545709)"><path d="M0.41 -0.4 C5.49 -1.89, 24.73 -8.4, 29.78 -9.84 M-0.84 -1.66 C4.66 -2.95, 26.81 -7.82, 31.92 -8.85" stroke="#1e1e1e" stroke-width="1" fill="none"></path></g></g><mask></mask><g stroke-linecap="round"><g transform="translate(632.3881734361985 576.3869549205043) rotate(0 0.6461573781874677 -7.276296446986919)"><path d="M0.41 -0.33 C0.34 -2.6, -0.12 -12.15, -0.18 -14.23 M-0.83 -1.54 C-0.54 -3.61, 2.15 -10.77, 2.12 -12.96" stroke="#1e1e1e" stroke-width="1" fill="none"></path></g></g><mask></mask></svg>