<svg version="1.1" xmlns="http://www.w3.org/2000/svg" viewBox="0 0 1274.5108642578125 882.9802202497208" width="1274.5108642578125" height="882.9802202497208">
  <!-- svg-source:excalidraw -->
  
  <defs>
    <style class="style-fonts">
      @font-face {
        font-family: "Virgil";
        src: url("https://excalidraw.com/Virgil.woff2");
      }
      @font-face {
        font-family: "Cascadia";
        src: url("https://excalidraw.com/Cascadia.woff2");
      }
    </style>
  </defs>
  <rect x="0" y="0" width="1274.5108642578125" height="882.9802202497208" fill="#ffffff"></rect><g stroke-linecap="round" transform="translate(949.5108642578125 472.9802202497208) rotate(0 157.5 200)"><path d="M0.17 1.16 C88.11 0.59, 173.5 -0.31, 314.23 -0.47 M0.39 -0.46 C63.15 -1.02, 126.26 0.03, 314.64 -0.63 M315.56 0.89 C317.42 95.58, 316.85 191.64, 315.46 399.28 M315.53 0.16 C314.41 140.28, 314.08 281.62, 314.81 399.97 M314.4 399.7 C242.19 401.1, 167.91 400.82, -0.05 400.68 M315.41 400.4 C227 401.58, 138.17 401.98, -0.7 400.65 M0.12 399.12 C1.82 310.41, 1.32 220.7, -0.88 -0.13 M0.49 400.05 C1.46 245.69, 1.9 91.19, -0.48 0.12" stroke="#000000" stroke-width="1" fill="none"></path></g><g transform="translate(954.5108642578125 477.9802202497208) rotate(0 74.47991943359375 12.5)"><text x="0" y="0" font-family="Virgil, Segoe UI Emoji" font-size="20px" fill="#e03131" text-anchor="start" style="white-space: pre;" direction="ltr" dominant-baseline="text-before-edge">ingress-j8a-pod</text></g><g stroke-linecap="round" transform="translate(428.0627136230469 201.24044363839266) rotate(0 93 137)"><path d="M-0.03 0.7 C37.98 -3.07, 76.85 0.76, 184.47 -1.4 M0.55 0.48 C45.91 1.84, 91.75 0.58, 186.23 -0.52 M184.92 0.95 C188.16 89.8, 188.46 176.46, 184.69 272.7 M185.84 0.25 C183.19 67.66, 184.69 136.24, 185.7 274.51 M187.21 274.47 C126.93 275.12, 68.42 273.45, 1.52 275.46 M185.48 274.63 C134.63 274.86, 84.06 275.16, -0.47 273.21 M-1.35 274.56 C-1.23 176.96, 0.35 80.07, -0.03 0.96 M-0.62 274.44 C-0.51 195.75, 0.03 118.26, -0.69 0.09" stroke="#000000" stroke-width="1" fill="none"></path></g><g transform="translate(444.09278106689453 313.24044363839266) rotate(0 76.96993255615234 25)"><text x="76.96993255615234" y="0" font-family="Virgil, Segoe UI Emoji" font-size="20px" fill="#e03131" text-anchor="middle" style="white-space: pre;" direction="ltr" dominant-baseline="text-before-edge">Kubernetes API</text><text x="76.96993255615234" y="25" font-family="Virgil, Segoe UI Emoji" font-size="20px" fill="#e03131" text-anchor="middle" style="white-space: pre;" direction="ltr" dominant-baseline="text-before-edge">Server</text></g><g stroke-linecap="round" transform="translate(424.1640930175781 673.9374040876114) rotate(0 92.69461059570312 50.648162841796875)"><path d="M1.58 0.25 C72.24 -1.04, 148.8 1.16, 186.93 -1.41 M0.69 -0.24 C71.49 0.82, 142.8 1.04, 185.26 -0.9 M183.87 -0.11 C186.79 26.68, 184.98 57.42, 185.15 103.01 M184.71 0.61 C185.86 21.87, 185.07 44.03, 184.89 102.25 M184.84 99.68 C129.12 101.75, 71.17 103.98, 1.67 101.15 M184.68 100.37 C114.27 102.8, 44.16 101.98, -0.41 101.4 M1.9 102.49 C-0.74 76.31, 0.57 49.27, -1.1 1 M0.38 101.81 C1.09 65.1, -0.36 30.32, 0.11 -0.13" stroke="#000000" stroke-width="1" fill="none"></path></g><g transform="translate(494.5187225341797 712.0855669294083) rotate(0 22.339981079101562 12.5)"><text x="22.339981079101562" y="0" font-family="Virgil, Segoe UI Emoji" font-size="20px" fill="#e03131" text-anchor="middle" style="white-space: pre;" direction="ltr" dominant-baseline="text-before-edge">User</text></g><g mask="url(#mask-tAUt0zWg_Ot6s81udvQX1)" stroke-linecap="round"><g transform="translate(524.2991006023913 672.1110792061161) rotate(0 -1.0198207923402052 -89.52208114108024)"><path d="M-0.89 -0.69 C-1.19 -30.72, -2.01 -150.73, -2.33 -180.6 M0.84 1.56 C0.49 -28.23, -2.16 -148.53, -2.88 -179.12" stroke="#e03131" stroke-width="1" fill="none"></path></g><g transform="translate(524.2991006023913 672.1110792061161) rotate(0 -1.0198207923402052 -89.52208114108024)"><path d="M6.86 -149.89 C5.15 -158, 3.45 -166.98, -3.47 -180.28 M7.21 -150.94 C6.11 -156.66, 3.52 -164.49, -2.3 -178.13" stroke="#e03131" stroke-width="1" fill="none"></path></g><g transform="translate(524.2991006023913 672.1110792061161) rotate(0 -1.0198207923402052 -89.52208114108024)"><path d="M-13.66 -149.43 C-10.1 -157.51, -6.53 -166.6, -3.47 -180.28 M-13.31 -150.48 C-9.85 -156.14, -7.88 -164.07, -2.3 -178.13" stroke="#e03131" stroke-width="1" fill="none"></path></g></g><mask id="mask-tAUt0zWg_Ot6s81udvQX1"><rect x="0" y="0" fill="#fff" width="627.3991725380272" height="952.6065176357631"></rect><rect x="442.9691345198272" y="556.8633599912926" fill="#000" width="159.5598602294922" height="50" opacity="1"></rect></mask><g transform="translate(442.9691345198272 556.8633599912926) rotate(0 80.31014529022389 25.725638073743312)"><text x="79.7799301147461" y="0" font-family="Virgil, Segoe UI Emoji" font-size="20px" fill="#e03131" text-anchor="middle" style="white-space: pre;" direction="ltr" dominant-baseline="text-before-edge">1. touch ingress </text><text x="79.7799301147461" y="25" font-family="Virgil, Segoe UI Emoji" font-size="20px" fill="#e03131" text-anchor="middle" style="white-space: pre;" direction="ltr" dominant-baseline="text-before-edge">resource</text></g><g stroke-linecap="round" transform="translate(1011.9111633300781 735.0036882672989) rotate(0 92.69461059570312 50.648162841796875)"><path d="M-1.42 -0.85 C46.93 -1.08, 97.16 0.97, 185.63 1.29 M0.34 0.37 C41.66 0.75, 83.4 0.74, 185.72 -0.49 M185.65 0.85 C184.26 22.47, 185.19 43.73, 187.32 102.1 M185.13 0.74 C183.54 35.33, 184.07 69.72, 185.45 100.81 M185.52 99.88 C131.83 102.25, 75.36 99.63, -0.5 102.11 M186.2 100.65 C116.15 99.88, 45.89 100.88, -0.48 101.3 M-1.42 101.79 C0.78 66.95, 0.65 32.87, 0 1.28 M0.32 100.85 C0.75 71.13, 0.67 40.85, -0.11 0.65" stroke="#000000" stroke-width="1" fill="none"></path></g><g transform="translate(1076.0657958984375 773.1518511090958) rotate(0 28.53997802734375 12.5)"><text x="28.53997802734375" y="0" font-family="Virgil, Segoe UI Emoji" font-size="20px" fill="#e03131" text-anchor="middle" style="white-space: pre;" direction="ltr" dominant-baseline="text-before-edge">Cache</text></g><g mask="url(#mask-SLbifahs74q6cWRClK0D-)" stroke-linecap="round"><g transform="translate(1007.9534973576275 755.4492838069157) rotate(0 -181.21632521116555 -153.01970771062125)"><path d="M0.6 0 C-41.79 -5.19, -206.29 -1.66, -253.53 -31.57 C-300.77 -61.49, -275.78 -137.32, -282.83 -179.5 C-289.88 -221.69, -282.69 -263.6, -295.83 -284.69 C-308.97 -305.78, -350.62 -302.69, -361.67 -306.04 M-0.55 -1.04 C-42.65 -6.03, -204.78 -0.69, -251.42 -30.27 C-298.05 -59.86, -273.02 -136.25, -280.38 -178.54 C-287.75 -220.83, -281.82 -262.79, -295.6 -284.01 C-309.37 -305.23, -352.15 -302.3, -363.03 -305.86" stroke="#e03131" stroke-width="1" fill="none"></path></g><g transform="translate(1007.9534973576275 755.4492838069157) rotate(0 -181.21632521116555 -153.01970771062125)"><path d="M-333.71 -314.12 C-345.18 -311.19, -356.25 -307.49, -364.36 -305.5 M-333.8 -311.99 C-341.96 -309.38, -349.35 -308.64, -363.81 -305.37" stroke="#e03131" stroke-width="1" fill="none"></path></g><g transform="translate(1007.9534973576275 755.4492838069157) rotate(0 -181.21632521116555 -153.01970771062125)"><path d="M-336.48 -293.79 C-346.86 -298.29, -356.92 -302.01, -364.36 -305.5 M-336.56 -291.66 C-343.95 -294.48, -350.6 -299.15, -363.81 -305.37" stroke="#e03131" stroke-width="1" fill="none"></path></g></g><mask id="mask-SLbifahs74q6cWRClK0D-"><rect x="0" y="0" fill="#fff" width="1469.8442810922081" height="1161.084153909078"></rect><rect x="616.8414764404296" y="551.6178545270645" fill="#000" width="218.27981567382812" height="50" opacity="1"></rect></mask><g transform="translate(616.8414764404297 551.6178545270645) rotate(0 209.89569570603226 50.81172156922989)"><text x="109.13990783691406" y="0" font-family="Virgil, Segoe UI Emoji" font-size="20px" fill="#e03131" text-anchor="middle" style="white-space: pre;" direction="ltr" dominant-baseline="text-before-edge">2. watch for resource</text><text x="109.13990783691406" y="25" font-family="Virgil, Segoe UI Emoji" font-size="20px" fill="#e03131" text-anchor="middle" style="white-space: pre;" direction="ltr" dominant-baseline="text-before-edge">changes</text></g><g stroke-linecap="round" transform="translate(1010.5931701660156 536.0895036969864) rotate(0 92.69461059570312 50.648162841796875)"><path d="M0.74 1.68 C44.96 -0.13, 92.38 -0.55, 183.65 1.4 M-0.5 -0.35 C59.12 0.27, 116.67 -0.31, 185.11 0.61 M184.01 -0.19 C186.85 32.83, 187.65 62.5, 185.76 101.22 M184.84 0.9 C185.27 28.02, 185.62 58.13, 185.63 101.1 M185.37 100.17 C142.19 100.29, 98.51 101.71, -0.65 100.39 M185.83 101.37 C122.87 101.44, 60.4 101.75, 0.06 102.01 M0.37 101.33 C-1.37 59.62, -2.43 19.29, 0.59 -0.26 M0.6 101.59 C1.37 80.56, -0.34 58.21, 0.68 0.39" stroke="#000000" stroke-width="1" fill="none"></path></g><g transform="translate(1041.517837524414 574.2376665387833) rotate(0 61.76994323730469 12.5)"><text x="61.76994323730469" y="0" font-family="Virgil, Segoe UI Emoji" font-size="20px" fill="#e03131" text-anchor="middle" style="white-space: pre;" direction="ltr" dominant-baseline="text-before-edge">Control Loop</text></g><g mask="url(#mask-qRlLe-qKDLQ7wmSEBahc7)" stroke-linecap="round"><g transform="translate(1151.6245727539062 640.4332231794083) rotate(0 1.003742104661626 45.23529281395952)"><path d="M0.58 0.52 C1.1 15.77, 2.21 75.77, 2.57 90.73 M-0.57 -0.26 C-0.19 14.73, 1.09 73.69, 1.52 89.02" stroke="#e03131" stroke-width="1" fill="none"></path></g><g transform="translate(1151.6245727539062 640.4332231794083) rotate(0 1.003742104661626 45.23529281395952)"><path d="M-8.57 60.74 C-5.49 68.28, -3.45 74.93, 1.43 89.92 M-9.5 60.28 C-5.24 70.78, -2.3 80.27, 1.94 88.79" stroke="#e03131" stroke-width="1" fill="none"></path></g><g transform="translate(1151.6245727539062 640.4332231794083) rotate(0 1.003742104661626 45.23529281395952)"><path d="M11.94 60.24 C9.71 68, 6.44 74.79, 1.43 89.92 M11.02 59.77 C8.23 70.41, 4.11 80.07, 1.94 88.79" stroke="#e03131" stroke-width="1" fill="none"></path></g></g><mask id="mask-qRlLe-qKDLQ7wmSEBahc7"><rect x="0" y="0" fill="#fff" width="1254.4069213867188" height="830.3843950544083"></rect><rect x="1106.7457733154297" y="672.9088091169083" fill="#000" width="92.53994750976562" height="25" opacity="1"></rect></mask><g transform="translate(1106.7457733154297 672.9088091169083) rotate(0 45.88254154313819 12.759706876459518)"><text x="46.26997375488281" y="0" font-family="Virgil, Segoe UI Emoji" font-size="20px" fill="#e03131" text-anchor="middle" style="white-space: pre;" direction="ltr" dominant-baseline="text-before-edge">  4. read</text></g><g mask="url(#mask-PwAU-QU5VK1QZyPLaVwjj)" stroke-linecap="round"><g transform="translate(1069.7579345703125 728.0760431584174) rotate(0 0.7312749691923273 -42.95778095257006)"><path d="M1.04 0.67 C1.14 -13.57, 1.5 -70.5, 1.32 -84.8 M0.13 -0.03 C0.02 -14.67, 0.14 -72.64, 0.49 -86.58" stroke="#e03131" stroke-width="1" fill="none"></path></g><g transform="translate(1069.7579345703125 728.0760431584174) rotate(0 0.7312749691923273 -42.95778095257006)"><path d="M11.54 -57.89 C7.76 -70.33, 3.54 -78.9, 1.82 -85.39 M9.72 -57.55 C6.61 -68.79, 3.38 -79.09, 0.66 -86.28" stroke="#e03131" stroke-width="1" fill="none"></path></g><g transform="translate(1069.7579345703125 728.0760431584174) rotate(0 0.7312749691923273 -42.95778095257006)"><path d="M-8.98 -58.13 C-5.32 -70.66, -2.1 -79.15, 1.82 -85.39 M-10.8 -57.79 C-6.38 -68.81, -2.09 -79.02, 0.66 -86.28" stroke="#e03131" stroke-width="1" fill="none"></path></g></g><mask id="mask-PwAU-QU5VK1QZyPLaVwjj"><rect x="0" y="0" fill="#fff" width="1170.845703125" height="913.5331354435737"></rect><rect x="1028.15185546875" y="672.8474970158393" fill="#000" width="84.2999267578125" height="25" opacity="1"></rect></mask><g transform="translate(1028.15185546875 672.8474970158393) rotate(0 42.33735407075483 12.27076519000812)"><text x="42.14996337890625" y="0" font-family="Virgil, Segoe UI Emoji" font-size="20px" fill="#e03131" text-anchor="middle" style="white-space: pre;" direction="ltr" dominant-baseline="text-before-edge">3. notify</text></g><g mask="url(#mask-0qZM7bjj20a75E85JvKnv)" stroke-linecap="round"><g transform="translate(993.4459462960681 582.7889658874028) rotate(0 -174.8404026642333 -96.10457259167956)"><path d="M0.85 0.05 C-21.46 -3.04, -103.65 0.94, -133.82 -18.33 C-163.98 -37.6, -163.49 -88.68, -180.13 -115.57 C-196.76 -142.45, -205.21 -166.85, -233.61 -179.63 C-262.01 -192.41, -331.05 -190.09, -350.53 -192.26 M-0.16 -0.97 C-22.6 -3.92, -104.47 1.9, -134.55 -17.06 C-164.64 -36.02, -164.27 -87.24, -180.66 -114.71 C-197.05 -142.19, -204.88 -169.03, -232.9 -181.92 C-260.93 -194.82, -329.37 -190.67, -348.81 -192.09" stroke="#e03131" stroke-width="1" fill="none"></path></g><g transform="translate(993.4459462960681 582.7889658874028) rotate(0 -174.8404026642333 -96.10457259167956)"><path d="M-320.41 -201.29 C-329.92 -198.02, -339.12 -194.32, -347.97 -193.58 M-321.43 -201.78 C-328.74 -199.86, -334.83 -196.31, -349.41 -192.52" stroke="#e03131" stroke-width="1" fill="none"></path></g><g transform="translate(993.4459462960681 582.7889658874028) rotate(0 -174.8404026642333 -96.10457259167956)"><path d="M-320.68 -180.77 C-330.15 -183.73, -339.27 -186.25, -347.97 -193.58 M-321.71 -181.26 C-328.8 -184.77, -334.81 -186.65, -349.41 -192.52" stroke="#e03131" stroke-width="1" fill="none"></path></g></g><mask id="mask-0qZM7bjj20a75E85JvKnv"><rect x="0" y="0" fill="#fff" width="1443.0832891454202" height="874.620781733165"></rect><rect x="745.9414348693504" y="443.1086388599207" fill="#000" width="133.85987854003906" height="50" opacity="1"></rect></mask><g transform="translate(745.9414348693502 443.1086388599207) rotate(0 72.66410876248455 43.575754435802594)"><text x="66.92993927001953" y="0" font-family="Virgil, Segoe UI Emoji" font-size="20px" fill="#e03131" text-anchor="middle" style="white-space: pre;" direction="ltr" dominant-baseline="text-before-edge">5. touch </text><text x="66.92993927001953" y="25" font-family="Virgil, Segoe UI Emoji" font-size="20px" fill="#e03131" text-anchor="middle" style="white-space: pre;" direction="ltr" dominant-baseline="text-before-edge">j8a-configmap</text></g><g stroke-linecap="round" transform="translate(832.9355773925781 22.882777622767662) rotate(0 92.69461059570312 50.648162841796875)"><path d="M-0.57 0.68 C46.25 -0.18, 93.4 -2.39, 185.27 -0.13 M0.02 0.36 C55.03 0.28, 108.1 0.73, 186.16 -0.53 M186.03 -0.85 C184.58 33.88, 186.18 72.38, 184.9 102.71 M185.42 0.68 C185.82 39.67, 185.01 77.77, 184.65 100.48 M186.31 99.49 C115.32 101.76, 48.13 99.7, 0.96 101.21 M185.64 101.04 C114.93 102.09, 44.58 102.23, -1 101.71 M-0.77 101.65 C-1.6 72.03, 0.94 45.17, -0.16 -0.23 M-0.32 101.47 C-0.8 64.19, -0.79 27.72, 0.39 -0.87" stroke="#000000" stroke-width="1" fill="none"></path></g><g transform="translate(858.7002487182617 61.03094046456454) rotate(0 66.92993927001953 12.5)"><text x="66.92993927001953" y="0" font-family="Virgil, Segoe UI Emoji" font-size="20px" fill="#e03131" text-anchor="middle" style="white-space: pre;" direction="ltr" dominant-baseline="text-before-edge">j8a-configmap</text></g><g mask="url(#mask-L-t1e0EXSiDQwj4hzzu1Z)" stroke-linecap="round"><g transform="translate(529.8554906068323 179.49791439592087) rotate(0 128.52686447053492 -59.19192870287688)"><path d="M-0.54 0.77 C6.74 -7.38, 22.56 -34.88, 42.6 -48.19 C62.65 -61.5, 83.9 -67.27, 119.7 -79.09 C155.5 -90.92, 234.49 -112.49, 257.39 -119.15 M1.37 0.13 C9.12 -7.92, 25.11 -33.86, 44.8 -46.87 C64.48 -59.89, 84.01 -66.06, 119.48 -77.95 C154.94 -89.85, 234.32 -111.42, 257.6 -118.24" stroke="#e03131" stroke-width="1" fill="none"></path></g><g transform="translate(529.8554906068323 179.49791439592087) rotate(0 128.52686447053492 -59.19192870287688)"><path d="M234.55 -102.33 C237.53 -102.51, 242.72 -108.01, 257.01 -118.84 M232.55 -100.41 C240.8 -105.49, 246.62 -110.9, 257.72 -117.47" stroke="#e03131" stroke-width="1" fill="none"></path></g><g transform="translate(529.8554906068323 179.49791439592087) rotate(0 128.52686447053492 -59.19192870287688)"><path d="M228.96 -122.07 C233.22 -118.13, 239.57 -119.52, 257.01 -118.84 M226.96 -120.16 C236.93 -119.76, 244.31 -119.71, 257.72 -117.47" stroke="#e03131" stroke-width="1" fill="none"></path></g></g><mask id="mask-L-t1e0EXSiDQwj4hzzu1Z"><rect x="0" y="0" fill="#fff" width="887.3323851293427" height="398.2981926548126"></rect><rect x="513.3745868531083" y="76.188819116915" fill="#000" width="192.2798309326172" height="75" opacity="1"></rect></mask><g transform="translate(513.3745868531082 76.188819116915) rotate(0 145.00776822425894 44.117166576128994)"><text x="96.1399154663086" y="0" font-family="Virgil, Segoe UI Emoji" font-size="20px" fill="#e03131" text-anchor="middle" style="white-space: pre;" direction="ltr" dominant-baseline="text-before-edge">6. update current </text><text x="96.1399154663086" y="25" font-family="Virgil, Segoe UI Emoji" font-size="20px" fill="#e03131" text-anchor="middle" style="white-space: pre;" direction="ltr" dominant-baseline="text-before-edge">cluster config in </text><text x="96.1399154663086" y="50" font-family="Virgil, Segoe UI Emoji" font-size="20px" fill="#e03131" text-anchor="middle" style="white-space: pre;" direction="ltr" dominant-baseline="text-before-edge">separate configMap</text></g><g mask="url(#mask-h2TDrfHFu8xyFOLeIi3_1)" stroke-linecap="round"><g transform="translate(1092.732675613452 514.9540555367129) rotate(0 -225.53607790211524 -103.3966674560146)"><path d="M0.86 0.72 C-5.48 -29.72, -11.81 -149.4, -37.48 -183.53 C-63.16 -217.67, -105.01 -200.45, -153.2 -204.09 C-201.38 -207.74, -276.98 -205.29, -326.58 -205.41 C-376.18 -205.52, -430.13 -204.85, -450.8 -204.78 M-0.14 0.05 C-6.19 -30.12, -9.83 -147.69, -35.38 -182.07 C-60.92 -216.44, -104.92 -202.46, -153.43 -206.18 C-201.93 -209.9, -276.67 -204.68, -326.43 -204.39 C-376.18 -204.1, -430.93 -204.13, -451.94 -204.43" stroke="#2f9e44" stroke-width="1" fill="none"></path></g><g transform="translate(1092.732675613452 514.9540555367129) rotate(0 -225.53607790211524 -103.3966674560146)"><path d="M-422.47 -216.41 C-433.86 -209.06, -442.72 -207.53, -452.21 -203.35 M-423.78 -215.06 C-431.9 -212.16, -440.47 -208.34, -452.84 -204.5" stroke="#2f9e44" stroke-width="1" fill="none"></path></g><g transform="translate(1092.732675613452 514.9540555367129) rotate(0 -225.53607790211524 -103.3966674560146)"><path d="M-422.62 -195.89 C-433.81 -195.72, -442.62 -201.37, -452.21 -203.35 M-423.93 -194.54 C-432.14 -197.68, -440.67 -199.9, -452.84 -204.5" stroke="#2f9e44" stroke-width="1" fill="none"></path></g></g><mask id="mask-h2TDrfHFu8xyFOLeIi3_1"><rect x="0" y="0" fill="#fff" width="1644.1832508846792" height="820.1966669118635"></rect><rect x="847.2514490988436" y="272.87980761079325" fill="#000" width="182.5198516845703" height="75" opacity="1"></rect></mask><g transform="translate(847.2514490988435 272.8798076107932) rotate(0 19.945148612493227 138.67758046990505)"><text x="91.25992584228516" y="0" font-family="Virgil, Segoe UI Emoji" font-size="20px" fill="#2f9e44" text-anchor="middle" style="white-space: pre;" direction="ltr" dominant-baseline="text-before-edge">7. deploy j8a pods</text><text x="91.25992584228516" y="25" font-family="Virgil, Segoe UI Emoji" font-size="20px" fill="#2f9e44" text-anchor="middle" style="white-space: pre;" direction="ltr" dominant-baseline="text-before-edge">with updated </text><text x="91.25992584228516" y="50" font-family="Virgil, Segoe UI Emoji" font-size="20px" fill="#2f9e44" text-anchor="middle" style="white-space: pre;" direction="ltr" dominant-baseline="text-before-edge">config</text></g><g stroke-linecap="round" transform="translate(10 394.55022757393954) rotate(0 90.5 128)"><path d="M1.49 0.23 C46.84 -0.68, 95.55 1.78, 179.12 -0.63 M0.13 -0.24 C38.94 -1.2, 80.23 -0.99, 180.37 -0.3 M179.99 -1.53 C180.01 68.21, 180.08 139.78, 179.5 255.35 M180.62 -0.77 C181.55 94.42, 180.57 190.15, 181.43 256.59 M182.24 256.86 C133.63 253.75, 81.24 254.72, -0.18 257.6 M180.38 256.83 C136.04 256.57, 90.82 256.33, 0.84 255.89 M-1.52 255.88 C-0.71 189.86, -1.03 125.37, -0.81 1.44 M0.07 256.7 C0.97 192.35, 0.8 128.86, -0.73 -0.6" stroke="#000000" stroke-width="1" fill="none"></path></g><g transform="translate(27.720069885253906 510.05022757393954) rotate(0 72.7799301147461 12.5)"><text x="72.7799301147461" y="0" font-family="Virgil, Segoe UI Emoji" font-size="20px" fill="#e03131" text-anchor="middle" style="white-space: pre;" direction="ltr" dominant-baseline="text-before-edge">j8a-deployment</text></g><g stroke-linecap="round" transform="translate(12.411212739490566 10) rotate(0 90.5 128)"><path d="M1.71 0.52 C54.12 -1.37, 108.04 -1.01, 181.15 0.3 M0.8 -0.69 C49.84 0.39, 100.18 1.6, 181.13 -0.3 M180.41 -1.3 C181.43 55.93, 183.44 111.26, 180.38 256.47 M180.2 -0.48 C180.86 96.54, 180.36 194.43, 180.78 255.22 M179.75 254.26 C116.14 252.91, 54.37 254.62, -1.41 256.41 M181.5 256.17 C112.46 255.99, 42.17 256.23, 0.75 255.51 M-0.2 255.54 C-0.27 181.87, -0.13 107.23, -0.51 -1.61 M-0.49 255.84 C1.21 173.33, 0.86 89.32, 0.69 0.64" stroke="#000000" stroke-width="1" fill="none"></path></g><g transform="translate(38.49126034691244 88) rotate(0 64.41995239257812 50)"><text x="64.41995239257812" y="0" font-family="Virgil, Segoe UI Emoji" font-size="20px" fill="#e03131" text-anchor="middle" style="white-space: pre;" direction="ltr" dominant-baseline="text-before-edge">j8a-service</text><text x="64.41995239257812" y="25" font-family="Virgil, Segoe UI Emoji" font-size="20px" fill="#e03131" text-anchor="middle" style="white-space: pre;" direction="ltr" dominant-baseline="text-before-edge"></text><text x="64.41995239257812" y="50" font-family="Virgil, Segoe UI Emoji" font-size="20px" fill="#e03131" text-anchor="middle" style="white-space: pre;" direction="ltr" dominant-baseline="text-before-edge">(type </text><text x="64.41995239257812" y="75" font-family="Virgil, Segoe UI Emoji" font-size="20px" fill="#e03131" text-anchor="middle" style="white-space: pre;" direction="ltr" dominant-baseline="text-before-edge">loadbalancer)</text></g><g mask="url(#mask-ayeefUfpSnSFAnd9ckQ7a)" stroke-linecap="round"><g transform="translate(397.3428422246868 353.27812362154896) rotate(0 -89.99205146308103 61.912288386035264)"><path d="M-0.1 -0.74 C-13.6 10.1, -51.05 45.37, -80.86 66.26 C-110.67 87.14, -162.5 115.03, -178.95 124.57 M-1.6 1.48 C-14.72 12.52, -48.79 44.49, -78.5 64.71 C-108.21 84.93, -163 112.82, -179.89 122.81" stroke="#2f9e44" stroke-width="1" fill="none"></path></g><g transform="translate(397.3428422246868 353.27812362154896) rotate(0 -89.99205146308103 61.912288386035264)"><path d="M-161.43 99.06 C-164.28 106.69, -170.4 112.7, -179.83 123.98 M-159.88 99.91 C-166.86 109.58, -173.74 116.34, -180.66 122.4" stroke="#2f9e44" stroke-width="1" fill="none"></path></g><g transform="translate(397.3428422246868 353.27812362154896) rotate(0 -89.99205146308103 61.912288386035264)"><path d="M-151.49 117.01 C-157.62 119.03, -166.85 119.44, -179.83 123.98 M-149.94 117.86 C-160.74 120.99, -171.28 121.15, -180.66 122.4" stroke="#2f9e44" stroke-width="1" fill="none"></path></g></g><mask id="mask-ayeefUfpSnSFAnd9ckQ7a"><rect x="0" y="0" fill="#fff" width="675.9716006837602" height="576.7360543325269"></rect><rect x="248.95286160423666" y="380.93548583984375" fill="#000" width="136.4198760986328" height="75" opacity="1"></rect></mask><g transform="translate(248.95286160423666 380.93548583984375) rotate(0 58.397929157369134 34.25492616774048)"><text x="68.2099380493164" y="0" font-family="Virgil, Segoe UI Emoji" font-size="20px" fill="#2f9e44" text-anchor="middle" style="white-space: pre;" direction="ltr" dominant-baseline="text-before-edge">8. deploy with</text><text x="68.2099380493164" y="25" font-family="Virgil, Segoe UI Emoji" font-size="20px" fill="#2f9e44" text-anchor="middle" style="white-space: pre;" direction="ltr" dominant-baseline="text-before-edge">config as</text><text x="68.2099380493164" y="50" font-family="Virgil, Segoe UI Emoji" font-size="20px" fill="#2f9e44" text-anchor="middle" style="white-space: pre;" direction="ltr" dominant-baseline="text-before-edge">env</text></g><g mask="url(#mask-K4c5OtnZqpATZ2so79061)" stroke-linecap="round"><g transform="translate(407.2785693783528 225.30896405537098) rotate(0 -96.43982324691535 -61.2226926493078)"><path d="M1.08 1.16 C-10.08 -10.29, -35.4 -48.91, -67.77 -69.71 C-100.15 -90.5, -172.33 -114.67, -193.17 -123.6 M0.19 0.72 C-11.03 -10.53, -36.16 -48.21, -68.52 -68.75 C-100.88 -89.28, -173.3 -113.58, -193.96 -122.5" stroke="#2f9e44" stroke-width="1" fill="none"></path></g><g transform="translate(407.2785693783528 225.30896405537098) rotate(0 -96.43982324691535 -61.2226926493078)"><path d="M-162.04 -121.24 C-172.81 -121.82, -178.69 -121.46, -194.12 -124.49 M-164.18 -121.07 C-171.27 -120.96, -177.04 -121.9, -194.52 -122.99" stroke="#2f9e44" stroke-width="1" fill="none"></path></g><g transform="translate(407.2785693783528 225.30896405537098) rotate(0 -96.43982324691535 -61.2226926493078)"><path d="M-169.45 -102.1 C-178.33 -107.23, -182.47 -111.36, -194.12 -124.49 M-171.6 -101.94 C-177.15 -105.98, -181.33 -111.04, -194.52 -122.99" stroke="#2f9e44" stroke-width="1" fill="none"></path></g></g><mask id="mask-K4c5OtnZqpATZ2so79061"><rect x="0" y="0" fill="#fff" width="700.4151403374262" height="448.5096486144539"></rect><rect x="272.129647107512" y="131.69526914475952" fill="#000" width="133.97987365722656" height="50" opacity="1"></rect></mask><g transform="translate(272.129647107512 131.69526914475952) rotate(0 38.70909902392543 32.391002261303655)"><text x="66.98993682861328" y="0" font-family="Virgil, Segoe UI Emoji" font-size="20px" fill="#2f9e44" text-anchor="middle" style="white-space: pre;" direction="ltr" dominant-baseline="text-before-edge">9. deploy with</text><text x="66.98993682861328" y="25" font-family="Virgil, Segoe UI Emoji" font-size="20px" fill="#2f9e44" text-anchor="middle" style="white-space: pre;" direction="ltr" dominant-baseline="text-before-edge">label selector</text></g></svg>